<?xml version='1.0' encoding='utf-8'?>
<svg xmlns="http://www.w3.org/2000/svg" width="512pt" height="512pt" version="1.1" viewBox="0 0 512 512"> <path d="m0 0h512v512h-512v-512z" fill="#404a53" stroke="#404a53" stroke-width=".25"/> <path d="m77.21 31.16c6.39 0.78-4.48 5.65 0 0z" fill="#b0bac3" stroke="#b0bac3" stroke-width=".25"/> <path d="m179.22 37.05c5.48 0.61-3.71 3.95 0 0z" fill="#9ca6b0" stroke="#9ca6b0" stroke-width=".25"/> <path d="m279.34 37.38c4.22-1.02-2.39 3.82-4.47 2.7 0.95-1.53 2.92-1.98 4.47-2.7z" fill="#8d97a0" stroke="#8d97a0" stroke-width=".25"/> <path d="m352.3 37.29c3.76-2.19 0.86 6.97-2.94 2.16-2.71 0.72-4.67 3.02-7.4 3.66 0.72-4.2 7.02-5.01 10.34-5.82z" fill="#9ca7ae" stroke="#9ca7ae" stroke-width=".25"/> <path d="m275.24 44.28c2.62-0.65 4.99-2.34 7.76-2.31 4.9 2.24-10.22 2.91-4.12 5.27-1.48 1.71-2.19 5.48-5.08 4.52 0.65-2.46 1.13-4.96 1.44-7.48z" fill="#707b81" stroke="#707b81" stroke-width=".25"/> <path d="m59.2 44.24c5.82-2.02-0.14 5.28 0 0z" fill="#adb7c1" stroke="#adb7c1" stroke-width=".25"/> <path d="m258.85 46.35c5.39-0.95 10.93-2.42 16.39-2.07-0.31 2.52-0.79 5.02-1.44 7.48-4.68 5.61-13.02 7.71-18.69 11.73-0.32-0.14-0.97-0.43-1.29-0.58 6.82-4.28 13.76-9.15 19.12-14.96-1.62-4.47-8.93-1.04-12.64-0.74-0.36-0.21-1.09-0.65-1.45-0.86z" fill="#b6bfc2" stroke="#b6bfc2" stroke-width=".25"/> <path d="m117.23 45.11c3.74-2.17 5.84 5.97 1.76 4.92-2.95 0.76-4.2-3.59-1.76-4.92z" fill="#ced6d7" stroke="#ced6d7" stroke-width=".25"/> <path d="m417.31 58.31c3.77-9.37 14.93-15.86 24.82-12.52 7.04 2.45 13.34 8.77 13.93 16.4v6.61c0.22 9.74-9.99 17.18-19.03 17.36-4-0.75-7.89-1.9-11.74-3.14-8.47-4.48-12.85-16.05-7.98-24.71z" fill="#bdc4c1" stroke="#bdc4c1" stroke-width=".25"/> <path d="m242.95 53.78c4.22-3.59 10.56-5.24 15.9-7.43 0.36 0.21 1.09 0.65 1.45 0.86-1.98 0.75-4.01 1.48-5.68 2.82 0.64 0.32 1.9 0.97 2.53 1.3-4.05 1.26-8.63 2.14-11.47 5.58-0.97-0.53-1.95-1.04-2.92-1.55 3.53 0.2 3.95-1.83 0.19-1.58z" fill="#808990" stroke="#808990" stroke-width=".25"/> <path d="m260.3 47.21c3.71-0.3 11.02-3.73 12.64 0.74-5.36 5.81-12.3 10.68-19.12 14.96-1.51 0.84-3.04 1.65-4.58 2.43-0.34-0.3-1-0.9-1.33-1.2 0.86-0.77 1.7-1.54 2.55-2.33 4.94-3.22 11.18-5.88 13.54-11.71-3.07-1-6.26-0.48-9.38-0.07 1.67-1.34 3.7-2.07 5.68-2.82z" fill="#474f54" stroke="#474f54" stroke-width=".25"/> <path d="m485.23 47.17c1.17-0.85 3.82 1.19 2.11 2.18-1.42 2.06-4.96-1.16-2.11-2.18z" fill="#bec8d0" stroke="#bec8d0" stroke-width=".25"/> <path d="m254.62 50.03c3.12-0.41 6.31-0.93 9.38 0.07-2.36 5.83-8.6 8.49-13.54 11.71-2.52-0.24-6.43 0.34-2.3-1.79 5.2-1.17 9.66-4.91 13-8.98-1.34 0.06-2.68 0.16-4.01 0.29-0.63-0.33-1.89-0.98-2.53-1.3z" fill="#aeb4b8" stroke="#aeb4b8" stroke-width=".25"/> <path d="m257.15 51.33c1.33-0.13 2.67-0.23 4.01-0.29-3.34 4.07-7.8 7.81-13 8.98-0.83-1.04-1.65-2.07-2.48-3.11 2.84-3.44 7.42-4.32 11.47-5.58z" fill="#424a51" stroke="#424a51" stroke-width=".25"/> <path d="m227.18 65.93c0.58-7.45 7.91-15.02 15.58-10.57 0.97 0.51 1.95 1.02 2.92 1.55 0.83 1.04 1.65 2.07 2.48 3.11-4.13 2.13-0.22 1.55 2.3 1.79-0.85 0.79-1.69 1.56-2.55 2.33-5.88 1.79-16.38 13.55-19.4 3.75-0.42-0.67-0.86-1.32-1.33-1.96z" fill="#dfded6" stroke="#dfded6" stroke-width=".25"/> <path d="m211.21 56.12c2.35-0.96 3.95 2.72 1.58 3.76-2.35 0.95-3.96-2.72-1.58-3.76z" fill="#b4bfc4" stroke="#b4bfc4" stroke-width=".25"/> <path d="m64.29 60.11c4.62 0.7-4.63 4.59 0 0z" fill="#929ca6" stroke="#929ca6" stroke-width=".25"/> <path d="m483.23 60.12c7.47 0.81-4.91 5.72 0 0z" fill="#c0cacb" stroke="#c0cacb" stroke-width=".25"/> <path d="m456.06 62.19c1.85 0.85 1.85 5.77 0 6.61v-6.61z" fill="#7e8789" stroke="#7e8789" stroke-width=".25"/> <path d="m67.16 63.16c4.64-1-1 4.64 0 0z" fill="#cbd5df" stroke="#cbd5df" stroke-width=".25"/> <path d="m249.24 65.34c1.54-0.78 3.07-1.59 4.58-2.43 0.32 0.15 0.97 0.44 1.29 0.58-1.07 1.1-2.14 2.21-3.37 3.13-6.16 2.69-12.02 6.01-17.99 9.07-6.89 3.25-13.78 7.69-21.74 7.34-2.43 0.8-2.2-1.3-2.03-3.01 14.18 2.56 26.73-8.95 39.26-14.68z" fill="#dbdfe0" stroke="#dbdfe0" stroke-width=".25"/> <path d="m228.51 67.89c3.02 9.8 13.52-1.96 19.4-3.75 0.33 0.3 0.99 0.9 1.33 1.2-12.53 5.73-25.08 17.24-39.26 14.68-1.37 0.95-5.77 5.23-4.74 1.23 5.37-4.88 10.2-11.38 16.84-14.35-0.78 1.48-2.83 2.57-2.4 4.44-0.92 2.75-4.17 4.48-4.54 6.66 5.38-1.14 8.58-7.25 13.37-10.11z" fill="#646a6f" stroke="#646a6f" stroke-width=".25"/> <path d="m219.68 71.34c2.57-1.71 4.88-3.78 7.5-5.41 0.47 0.64 0.91 1.29 1.33 1.96-4.79 2.86-7.99 8.97-13.37 10.11 0.37-2.18 3.62-3.91 4.54-6.66z" fill="#969c9f" stroke="#969c9f" stroke-width=".25"/> <path d="m233.75 75.69c5.97-3.06 11.83-6.38 17.99-9.07 0.01 1.32 0.06 4.02-1.54 4.24-2.43-4.5-10.24 4.83-14.38 5.7-0.52-0.22-1.55-0.65-2.07-0.87z" fill="#9d9e9a" stroke="#9d9e9a" stroke-width=".25"/> <path d="m304.24 68.2c5.28-0.14-2.02 5.82 0 0z" fill="#8d97a1" stroke="#8d97a1" stroke-width=".25"/> <path d="m235.82 76.56c4.14-0.87 11.95-10.2 14.38-5.7-1.85 5.8-8.96 9.02-14.38 5.7z" fill="#dadad5" stroke="#dadad5" stroke-width=".25"/> <path d="m134.16 70.16c4.64-1-1 4.64 0 0z" fill="#a6b0ba" stroke="#a6b0ba" stroke-width=".25"/> <path d="m371.19 74.13c3.84-1.86 5.31 2.5 2.58 4.74-2.57 0.43-4.6-2.67-2.58-4.74z" fill="#c9cdcf" stroke="#c9cdcf" stroke-width=".25"/> <path d="m166.24 75.3c6.11-0.86-1.62 6.07 0 0z" fill="#c0cad3" stroke="#c0cad3" stroke-width=".25"/> <path d="m476.3 80.24c6.07-1.62-0.86 6.11 0 0z" fill="#909aa4" stroke="#909aa4" stroke-width=".25"/> <path d="m463.44 81.43 0.63-0.57c-3.6 14.03-17.11 24.89-29.19 31.21 11.33-8.4 22.21-17.8 28.56-30.64z" fill="#6b757e" stroke="#6b757e" stroke-width=".25"/> <path d="m425.29 83.02c3.85 1.24 7.74 2.39 11.74 3.14-7.4 6.75-14.63 13.82-23.99 17.87 4.12-6.33 13.08-7.59 17.07-14.11-3.4 0.53-5.21 4.7-9.02 4.21 0.8-3.92 3.56-7.19 4.2-11.11z" fill="#778085" stroke="#778085" stroke-width=".25"/> <path d="m384.28 85.22c6.87-2.84 7.84 10.3 0.8 8.77-5.35-0.56-5.01-6.72-0.8-8.77z" fill="#c1c5c3" stroke="#c1c5c3" stroke-width=".25"/> <path d="m364.32 87.26c9.29-3.07 8.27 10.95 0.78 11.9-3.62 4.67-5.26-3.96-9.78-1.57-2.7-0.55-0.02-2.39 1.03-3.22 3.04-1.97 4.46-5.83 7.97-7.11z" fill="#74848a" stroke="#74848a" stroke-width=".25"/> <path d="m205.02 91.23c-1.99 3.84-10.09-4.46-3.05-0.86 0.96 0.45 1.98 0.74 3.05 0.86z" fill="#78838a" stroke="#78838a" stroke-width=".25"/> <path d="m201.97 90.37c0.54-2.98 6.36-1.01 3.05 0.86-1.07-0.12-2.09-0.41-3.05-0.86z" fill="#cbd6dc" stroke="#cbd6dc" stroke-width=".25"/> <path d="m56.27 91.3c3.4-1.4 1.93 5.39-1.35 4.62-5.47 1.43-1.64-4.17 1.35-4.62z" fill="#69737d" stroke="#69737d" stroke-width=".25"/> <path d="m38.21 92.16c6.39 0.78-4.48 5.65 0 0z" fill="#a9b2bb" stroke="#a9b2bb" stroke-width=".25"/> <path d="m294.21 92.16c6.39 0.78-4.48 5.65 0 0z" fill="#b5bfc2" stroke="#b5bfc2" stroke-width=".25"/> <path d="m314.69 109.69c4.65-4.93 14.02-9.28 19.96-5.45 1.27 3.4 6.01 8.17 9.41 4.62 7.03-0.97 15.91 1.02 18.63 8.35-0.75 7.83 6.05 9.11 12.13 5.91 2.47 2.22 4.92 4.47 7.51 6.57 4.63 0.18 9.66-2.05 13.62 1.37 0.71 1.01 1.94 1.86 1.95 3.23 0.07 0.5 0.19 1.52 0.25 2.02-2.74 1.78-6 3.97-1.52 5.9-4.81 5.15 6.21 10.15 8.24 3.67 1.45-4.65 4.7-5.5 8.25-2.79-0.99-3.89-3.41-8.35-8.25-7.8 1.67-0.23 3.37-0.42 5.07-0.35 6.88 1.95 13.87 3.63 21.04 4.1 2.07 1.85 3.94 4.37 4.94 7.01 0.77 4.09 2.65 9.65-2.9 7.09 1.36 6.73-0.59 13.64-2.08 20.31 1.15 0.16 2.32 0.27 3.48 0.45-1.08 3.25-3.83 6.23-3.38 9.84 2.97 1.8 6.13 3.31 8.96 5.33 1.46 3.25 0.12 6.85 0.77 10.15 2.96 1.27 5.84 2.72 8.38 4.75-0.64-1.42-1.36-2.8-2-4.22 6.45 1.41 7.8 8.73 10.19 13.94 2.84 4.19-7.32 2.49-3.38 8.33-0.7 4.23-6.66 4.01-9.88 2.7 0.01-3.1 1.42-5.85 2.01-8.83-1.86 0.11-3.02 1.59-4.28 2.75-6.22 1.47-10.42 7.06-14.27 11.82 0.41 5.82-5.71 11.78-11.35 11.52-1.68-4.47-1.71-9.67-4.52-13.79-2.89-0.98-5.31 2.04-8.13 1.53-1.15-4.72-6.59-5.22-10.43-6.69-2.77 3.12-6.62 2.56-10.35 1.99-1.8-1.37-2.89-4.48-5.53-3.99-0.7 3.55-0.85 7.18-1.49 10.75-3.31 2.04-7.2-0.39-10.67-1.02-0.04-4.37 8.9-3.46 5.78-9.48-2.73-4.71-9.4-3.34-9.36 2.35-6.79 4.68-8.39-7.16-8.85-11.3-6.59-10.11-16.98 6.41-24.97-1.06-2.96-4.17 5.57-5.78 6.19-9.12-4.06-4.94-11.28 3.05-14.76-2.28-1.84-2.2-4.85-2.62-7.35-3.73-0.45-0.36-1.35-1.09-1.81-1.45-3.2-3.63 7.61-7.59 0.27-8.62-2.79 6.06-12.36 0.15-18.12 2.84-6.75-1.05-6.31-10.94-0.45-13.17 0.26-3.95-2.21-3.97-4.92-1.92 0.34-4.79 7.08-6.31 6.52-11.43-1.15-5.43 6.71-8.23 2.13-13.56-4.51-13.01 1.81-27.21 10.31-37.12 2.29-2.56 5.9-2.77 9.01-2.02z" fill="#ede6d9" stroke="#ede6d9" stroke-width=".25"/> <path d="m334.65 104.24c3.5 0.3 6.79 2.34 9.41 4.62-3.4 3.55-8.14-1.22-9.41-4.62z" fill="#c4c6c1" stroke="#c4c6c1" stroke-width=".25"/> <path d="m383.9 116.07c8.94-4.39 19.59-7.89 29.14-12.04-8.11 6.21-18.81 10.29-29.14 12.04z" fill="#6d777f" stroke="#6d777f" stroke-width=".25"/> <path d="m55.15 124.63c6.06-20.25 37-26.99 49.56-8.38 3.05 4.39 5.87 9.29 6.3 14.73 0 3.67-0.06 7.37 0.05 11.05 0 0.5 0.01 1.49 0.01 1.99-4.25 0.66-8.64 3.27-1.79 3.68-0.72 1.43-1.45 2.87-2.42 4.16-4.33 2.09-10.05 4.51-14.5 1.81-3.17-4.23-6.3-9.53-12.63-7.46-3.94-11.14-15.71-14.83-24.58-21.58z" fill="#c2c7c4" stroke="#c2c7c4" stroke-width=".25"/> <path d="m180.9 124.97c0.51-8.37 10.91-13.95 18.31-10.2 2.57 5.1 11.66-2.56 11.78 4.22-4.1 1.15-8.38 3.23-9.13 7.9-1.54 6.11-9.8 8.01-13.93 3.34-4.15 1.57-8.46-0.24-7.03-5.26z" fill="#d1d0c7" stroke="#d1d0c7" stroke-width=".25"/> <path d="m75.22 115.18c3.09 2.69-4.14 3.07 0 0z" fill="#767b77" stroke="#767b77" stroke-width=".25"/> <path d="m307.99 122.98c1.47-4.09 5.49-8.17 10.16-8.04-3.55 2.49-6.78 5.34-10.16 8.04z" fill="#c4bfb3" stroke="#c4bfb3" stroke-width=".25"/> <path d="m362.69 117.21c4.52-0.16 12.03 0.13 12.13 5.91-6.08 3.2-12.88 1.92-12.13-5.91z" fill="#9da3a6" stroke="#9da3a6" stroke-width=".25"/> <path d="m201.86 126.89c0.75-4.67 5.03-6.75 9.13-7.9 1.5 0.92 3.04 1.77 4.71 2.36 1.95 1.09 5 6.47 7.19 3.88 3.78-3.53 7.82 6.77 13.13 2.72 1.21 5.6-5.39 3.76-8.97 4.11-0.29 1.87 2.85 0.5 3.98 1.05-1.12 4.18-6.38 3.4-9.17 5.73 1.84 0.13 4.56 0.18 1.83 1.76-8.88 2.02-18.77 9.74-27.66 4.47-2.52 4.23-9.28 5.87-12.33 1.23-3.85 1.36-7.31-0.85-10.9-2.03-0.36-0.09-1.09-0.28-1.46-0.38-2.9-0.28-5.95-0.44-5.5-3.86 6.06-2.93 14.58-8.28 15.06-15.06-1.43 5.02 2.88 6.83 7.03 5.26 4.13 4.67 12.39 2.77 13.93-3.34z" fill="#bebfb9" stroke="#bebfb9" stroke-width=".25"/> <path d="m353.84 119.98c3.29-0.49 6.77 1.08 8.28 4.1-2.94-0.85-6.02-2.01-8.28-4.1z" fill="#a09e97" stroke="#a09e97" stroke-width=".25"/> <path d="m215.7 121.35c2.85-0.03 4.84 2.61 7.19 3.88-2.19 2.59-5.24-2.79-7.19-3.88z" fill="#8c8f91" stroke="#8c8f91" stroke-width=".25"/> <path d="m341.3 121.34c0.79-0.1 4.73-1.21 3.34 0.3-4.91 1.49-9.11 4.52-13.75 6.46 2.02-3.93 6.53-5.33 10.41-6.76z" fill="#b5aea3" stroke="#b5aea3" stroke-width=".25"/> <path d="m270.21 123.2c3.65 2.76-3.57 2.93 0 0z" fill="#9aa2ad" stroke="#9aa2ad" stroke-width=".25"/> <path d="m301.99 134.16c-0.42-4.37 2.61-8.76 6-11.18-1.05 4.07-3.53 7.88-6 11.18z" fill="#b2aca2" stroke="#b2aca2" stroke-width=".25"/> <path d="m374.82 123.12c6.75 2.1 21.34-3 21.13 7.94-3.96-3.42-8.99-1.19-13.62-1.37-2.59-2.1-5.04-4.35-7.51-6.57z" fill="#9da3a3" stroke="#9da3a3" stroke-width=".25"/> <path d="m461.36 141.31c9.64-4.62 13.61-21.45 26.35-18.03 4.61 0.74 1.16 5.68 6 6.06 1.56 7.23 2.98 14.97 1.99 22.33-4.37 3.95-4.72 12.77 0.01 16.64-0.17 2.68-0.77 8.06-4.46 7.23-5.79 0.38-12.72 4.16-17.4-1.62 1.62 4.61 2.61 8.29-3.02 10.46-1.73 0.77-3.38 1.66-5.07 2.49-0.37-4.79 8.92-5.98 4.84-10.36-5.39 1.08-5.32-4.17-8.12-6.63-1.21-1.78-3.13-2.07-4.87-0.85-5.99 0.97-14.05-7.75-17.69 1.25-0.64-0.85-1.28-1.7-1.92-2.54 0.98-3.25 6.69-12.14 0.12-11.92-0.26-2.97-0.83-5.89-1.19-8.84 0.93 2.64 5.64 4.91 8.88 2.78 4.55-4.11 12.06-2.56 15.55-8.45z" fill="#45505b" stroke="#45505b" stroke-width=".25"/> <path d="m58.03 155.92c-6.56-8.8-7.19-21.97-2.88-31.29 8.87 6.75 20.64 10.44 24.58 21.58 6.33-2.07 9.46 3.23 12.63 7.46 4.45 2.7 10.17 0.28 14.5-1.81-6.85 18.7-37.31 20.3-48.83 4.06z" fill="#b3bcb9" stroke="#b3bcb9" stroke-width=".25"/> <path d="m361.24 128.06c2.59-0.62 5.8-0.81 6.98 1.88-0.47-1.26-11.44 2.11-6.98-1.88z" fill="#beb9b2" stroke="#beb9b2" stroke-width=".25"/> <path d="m329.38 130.44c2.1-1.56-0.3 9.62-4.41 2.55-5.9-0.69-7.97 6.21-12.05 8.06 0.93-8.46 10.7-7.78 16.46-10.61z" fill="#a49d94" stroke="#a49d94" stroke-width=".25"/> <path d="m409.94 134.94c4.99-8.2 19.63-6.31 21.04 4.1-7.17-0.47-14.16-2.15-21.04-4.1z" fill="#bbc2c0" stroke="#bbc2c0" stroke-width=".25"/> <path d="m111.01 130.98c1.32 0.33 2.56 10.58 0.05 11.05-0.11-3.68-0.05-7.38-0.05-11.05z" fill="#727c7d" stroke="#727c7d" stroke-width=".25"/> <path d="m371.05 133.82c2.77 0.68 5.58 3.24 4.93 6.34-1.84-1.94-3.46-4.11-4.93-6.34z" fill="#afa99e" stroke="#afa99e" stroke-width=".25"/> <path d="m397.9 134.29c2.1 0.4 4.2 0.78 6.31 1.15-1.98 0.5-4 0.98-6.06 0.87-0.06-0.5-0.18-1.52-0.25-2.02z" fill="#959796" stroke="#959796" stroke-width=".25"/> <path d="m404.21 135.44 0.66-0.15c4.84-0.55 7.26 3.91 8.25 7.8-3.55-2.71-6.8-1.86-8.25 2.79-2.03 6.48-13.05 1.48-8.24-3.67-4.48-1.93-1.22-4.12 1.52-5.9 2.06 0.11 4.08-0.37 6.06-0.87z" fill="#d9d6cc" stroke="#d9d6cc" stroke-width=".25"/> <path d="m266.23 136.17c1.17-0.85 3.82 1.19 2.11 2.18-1.41 2.06-4.96-1.16-2.11-2.18z" fill="#838b96" stroke="#838b96" stroke-width=".25"/> <path d="m451.15 137.2c5.53 1.97-3.48 4.12 0 0z" fill="#a4aeb8" stroke="#a4aeb8" stroke-width=".25"/> <path d="m335.37 138.38c1.01 1.2 8.62-2.16 8.45 0.47-5.86 0.97-12.12 1.19-16.93 5.13 0.11-3.86 5.56-4.2 8.48-5.6z" fill="#a69e94" stroke="#a69e94" stroke-width=".25"/> <path d="m281.16 139.16c4.64-1-1.01 4.64 0 0z" fill="#bdc5cf" stroke="#bdc5cf" stroke-width=".25"/> <path d="m171.34 143.89c-5.22 2.3-9.32-0.12-5.5-3.86-0.45 3.42 2.6 3.58 5.5 3.86z" fill="#838a8c" stroke="#838a8c" stroke-width=".25"/> <path d="m375.98 140.16c2.17-0.32-0.03 3.96 2.3 4.58 14.58 0.18-9.94 5.39-2.3-4.58z" fill="#a79e94" stroke="#a79e94" stroke-width=".25"/> <path d="m37.22 141.05c5.48 0.61-3.71 3.95 0 0z" fill="#aeb8c0" stroke="#aeb8c0" stroke-width=".25"/> <path d="m109.28 147.7c-6.85-0.41-2.46-3.02 1.79-3.68-0.6 1.04-0.32 3.91-1.79 3.68z" fill="#929b9b" stroke="#929b9b" stroke-width=".25"/> <path d="m171.34 143.89c0.37 0.1 1.1 0.29 1.46 0.38 1.36 4.19-5.75 2.32-1.46-0.38z" fill="#7a838b" stroke="#7a838b" stroke-width=".25"/> <path d="m435.92 146.05c0.25 0.23 0.76 0.7 1.01 0.93 0.36 2.95 0.93 5.87 1.19 8.84-0.83 4.05-1.83 8.09-2.06 12.24-0.32 2-0.79 3.99-1.64 5.84-1.16-0.18-2.33-0.29-3.48-0.45 1.49-6.67 3.44-13.58 2.08-20.31 5.55 2.56 3.67-3 2.9-7.09z" fill="#cbcec8" stroke="#cbcec8" stroke-width=".25"/> <path d="m295.37 148.83c4.58 5.33-3.28 8.13-2.13 13.56 0.56 5.12-6.18 6.64-6.52 11.43 2.71-2.05 5.18-2.03 4.92 1.92-5.86 2.23-6.3 12.12 0.45 13.17 5.76-2.69 15.33 3.22 18.12-2.84 7.34 1.03-3.47 4.99-0.27 8.62-8.83 1.64 2.08 8.66-1.92 13.62-1.54-1.87-1.31-6.17-4.66-5.21-2.02 8.5-10.25 23.66 4.97 23.95-4.12 0.28-8.65 4.94-12.13 0.74-5.15-7.83 8.14-19.28-0.95-26.05-3.07-3.56-6.1 0.06-8.33 2.46-5.25-3.96 1.61-15.44-6.91-15.25 1.77 7.8-0.65 15.24-3.12 22.55-6.95-2.81-4.63 5.02-6.95 8.95-2.16-0.41-4.25-1.11-6.01-2.47-0.47-3.95 1.46-7.52 3-11.01-37.7 4.64-70.72 27.69-96.13 54.82-1.9 0.85-4.4 7.47-5.72 4.29 17.6-21.57 40.32-39.42 65.92-51.08 11.65-7.25 25.71-7.81 38.66-11.39 6.29-0.24 3.23-8.95 1.79-13.04 2.03-5.47-2.77-9.41-2.48-14.54 0.02-2.02 0.01-4.04 0.02-6.05 3.89-10.36 13.58-20.54 25.75-19.23 0.16-0.48 0.47-1.44 0.63-1.92z" fill="#c9cbc6" stroke="#c9cbc6" stroke-width=".25"/> <path d="m149.22 151.1c4.38-1.99 4.76 5.51 0.78 4.91-3.09 1.16-2.51-3.83-0.78-4.91z" fill="#d4d9d7" stroke="#d4d9d7" stroke-width=".25"/> <path d="m86.39 154.47c3.08-1.68 0.45 1.38-0.6 2.32-3.77 3.15-9.04 3.41-13.74 3.19-2.5-0.06-4.93-6.75 2.94-1.96 4.46 1.4 7.81-1.79 11.4-3.55z" fill="#909795" stroke="#909795" stroke-width=".25"/> <path d="m259.27 154.11c8.17-5.23 5.37 9.2 0.38 6.34-3-0.38-2.64-5.05-0.38-6.34z" fill="#dbdcda" stroke="#dbdcda" stroke-width=".25"/> <path d="m349.01 153.86c3.9-0.42 6.13 7.44 3.22 8.02-0.01-3.05-1.57-5.59-3.22-8.02z" fill="#90887f" stroke="#90887f" stroke-width=".25"/> <path d="m223.15 156.13c3.1 0.08 1.69 4.88-1.18 3.91 0.04-1.4-0.21-3.06 1.18-3.91z" fill="#b9c2c9" stroke="#b9c2c9" stroke-width=".25"/> <path d="m438.12 155.82c6.57-0.22 0.86 8.67-0.12 11.92-0.49 0.08-1.45 0.24-1.94 0.32 0.23-4.15 1.23-8.19 2.06-12.24z" fill="#6a777c" stroke="#6a777c" stroke-width=".25"/> <path d="m411.2 160.07c8.48-4.29 6.8 6.74 0.87 5.93-3.44-0.68-3.1-3.95-0.87-5.93z" fill="#b5b9b3" stroke="#b5b9b3" stroke-width=".25"/> <path d="m393.22 162.12c7.91 1.22-4.58 5.78 0 0z" fill="#7a7266" stroke="#7a7266" stroke-width=".25"/> <path d="m237.17 164.21c5.18 1.8-4.3 4.26 0 0z" fill="#9fa9b2" stroke="#9fa9b2" stroke-width=".25"/> <path d="m201.23 166.14c8.16-3.01 7.78 12.42 0.06 9.59-5.3-1.06-3.26-7.24-0.06-9.59z" fill="#76858c" stroke="#76858c" stroke-width=".25"/> <path d="m439.92 170.28c3.64-9 11.7-0.28 17.69-1.25 0.83 3.1 3.15 3.81 4.87 0.85 2.8 2.46 2.73 7.71 8.12 6.63 4.08 4.38-5.21 5.57-4.84 10.36 1.69-0.83 3.34-1.72 5.07-2.49 2.44-0.06 4.9-0.27 7.34 0.05 3.29 2.24 1.6 12.14 6.19 11.91 2.93-0.46 6.14 1.06 8.39 2.9 1.5 11.85 2.3 23.92 2.18 35.87-1.63-0.09-3.11-0.62-4.02-2.02-1.17-6.46-2.15-13.94-7.95-17.95-5.8-3.79-8.13-11.67-14.67-14.37-7.8 0.67-9.75-10.47-18.61-6.51l-0.72-0.44c-1.36-1.91-3.71-2.39-5.77-3.14 0.2-6.98-0.46-13.95-3.27-20.4z" fill="#495761" stroke="#495761" stroke-width=".25"/> <path d="m343.93 167.89c3.03-0.47 5.76 2.17 5.11 5.23-1.95-1.46-3.16-3.72-5.11-5.23z" fill="#b8b0a5" stroke="#b8b0a5" stroke-width=".25"/> <path d="m436.06 168.06c0.49-0.08 1.45-0.24 1.94-0.32 0.64 0.84 1.28 1.69 1.92 2.54 2.81 6.45 3.47 13.42 3.27 20.4-1.13-0.41-2.16-1.02-3.19-1.61-2.83-2.02-5.99-3.53-8.96-5.33-0.45-3.61 2.3-6.59 3.38-9.84 0.85-1.85 1.32-3.84 1.64-5.84z" fill="#8c9b9d" stroke="#8c9b9d" stroke-width=".25"/> <path d="m457.61 169.03c1.74-1.22 3.66-0.93 4.87 0.85-1.72 2.96-4.04 2.25-4.87-0.85z" fill="#bdc4ca" stroke="#bdc4ca" stroke-width=".25"/> <path d="m260.19 171.21c2.9-0.57 5.81-1.41 8.8-1.23-0.01 2.01 0 4.03-0.02 6.05-1.82 0.02-0.58-2.79-1.15-3.94-0.17-2.12-8.09 1.71-7.63-0.88z" fill="#8f989e" stroke="#8f989e" stroke-width=".25"/> <path d="m336.28 172.32c1.39 0.27 1.39 4.09 0 4.36-0.72-1.29-0.72-3.08 0-4.36z" fill="#a8a093" stroke="#a8a093" stroke-width=".25"/> <path d="m413.86 175.84c2.42-2.93 7.31-2.13 9.22 0.98-3.09-0.21-6.17-0.58-9.22-0.98z" fill="#bab5a9" stroke="#bab5a9" stroke-width=".25"/> <path d="m473.85 173.92c4.68 5.78 11.61 2 17.4 1.62-2.84 1.98-5.7 4.11-9.17 4.79-0.11 1.48 1.39 3.65-0.82 4.1-0.74 4.15 2.25 7.93 3.1 11.91-4.59 0.23-2.9-9.67-6.19-11.91-2.44-0.32-4.9-0.11-7.34-0.05 5.63-2.17 4.64-5.85 3.02-10.46z" fill="#afb6bb" stroke="#afb6bb" stroke-width=".25"/> <path d="m372.23 175.12c3.51-1 7.88 1.91 7.63 5.64-3.48 5.3-12.46-1.58-7.63-5.64z" fill="#bcbebb" stroke="#bcbebb" stroke-width=".25"/> <path d="m423.08 176.82c2.45 1.52 3.21 4.55 3.01 7.27-1.91-1.67-2.31-4.84-3.01-7.27z" fill="#b0aca2" stroke="#b0aca2" stroke-width=".25"/> <path d="m220.96 184.98c0.48-8.51 13.58-9.82 16.11-1.76-0.11 1.84-0.11 3.7-0.01 5.55-2.23 9.55-18.64 6.42-16.1-3.79z" fill="#c7c9c5" stroke="#c7c9c5" stroke-width=".25"/> <path d="m192.25 183.32c2.29-0.6 2.22 4.08-0.3 3.65-3.2 1.25-2.37-3.91 0.3-3.65z" fill="#b7c1c7" stroke="#b7c1c7" stroke-width=".25"/> <path d="m237.07 183.22c1.8 0.46 1.81 5.09-0.01 5.55-0.1-1.85-0.1-3.71 0.01-5.55z" fill="#86888b" stroke="#86888b" stroke-width=".25"/> <path d="m131.02 186.01c3.17-1.36 4.12 2.2 1.76 3.82-2.78 1.31-1.59-2.26-1.76-3.82z" fill="#b2bbc2" stroke="#b2bbc2" stroke-width=".25"/> <path d="m349.09 187.85c5.79 1.59 6.19 13.12 1.93 16.36 1.1-5.62 0.87-11.28-1.93-16.36z" fill="#aaa297" stroke="#aaa297" stroke-width=".25"/> <path d="m383.34 188.42c0.69-0.13 2.08-0.38 2.78-0.51-3.22 3.34-8.7 4.05-13.12 4.16 2.06-2 7.33-1.52 10.34-3.65z" fill="#9d998f" stroke="#9d998f" stroke-width=".25"/> <path d="m280.01 188.95c8.52-0.19 1.66 11.29 6.91 15.25 2.23-2.4 5.26-6.02 8.33-2.46 9.09 6.77-4.2 18.22 0.95 26.05 3.48 4.2 8.01-0.46 12.13-0.74-7.82 2.65-10.86 9.93-15.3 16.06-0.03 2.43 2.72 3.93 4.13 5.72-5.69-1.36-11.21-5.28-13.03-11.02-1.72-3.92-6.72-0.78-9.38 0.56 0.3-7.19 0.47-13.57-7.57-14.06-0.38-0.33-1.14-0.98-1.52-1.3-0.13-4 10.11 0.51 4.28-2.56 2.32-3.93 0-11.76 6.95-8.95 2.47-7.31 4.89-14.75 3.12-22.55z" fill="#b4bab6" stroke="#b4bab6" stroke-width=".25"/> <path d="m440 189.07c1.03 0.59 2.06 1.2 3.19 1.61 2.06 0.75 4.41 1.23 5.77 3.14 0.4 4.42 5.88 4.06 7.72 7.5 3.07 4.65 1.22 10.75 3.41 15.62 7.65 7.47 2.53 18.48 9.64 26.25 0.63 2.48-0.05 4.76-1.76 6.61 2.95 8.48-9.42 16.72-17.8 16.58-9.02 3.04-0.6-11.97-7.06-15.59 0.26 4.37 0.9 8.69 0.94 13.09-8.32-0.06-16-3.35-23.97-5.25-1.28-2.72 4.54-3.17 1.41-5.11 0.61-1.55 3.1-2.88 1.74-4.63 1.71-2.96 6.91 0 8.49-4.18 1.75-9.29 7.3-17.14 10.09-26.07 1.26-1.16 2.42-2.64 4.28-2.75-0.59 2.98-2 5.73-2.01 8.83 3.22 1.31 9.18 1.53 9.88-2.7-3.94-5.84 6.22-4.14 3.38-8.33-2.39-5.21-3.74-12.53-10.19-13.94 0.64 1.42 1.36 2.8 2 4.22-2.54-2.03-5.42-3.48-8.38-4.75-0.65-3.3 0.69-6.9-0.77-10.15z" fill="#c9c9c0" stroke="#c9c9c0" stroke-width=".25"/> <path d="m361.24 190.33c3.3 2.48-2.27 4.91 0 0z" fill="#837c71" stroke="#837c71" stroke-width=".25"/> <path d="m448.96 193.82 0.72 0.44c4.07 2.98 10.69 3.7 11.51 9.61 2.09 4.43-2.37 11.32 3.05 13.98-1.4-0.3-2.78-0.59-4.15-0.91-2.19-4.87-0.34-10.97-3.41-15.62-1.84-3.44-7.32-3.08-7.72-7.5z" fill="#8a989c" stroke="#8a989c" stroke-width=".25"/> <path d="m449.68 194.26c8.86-3.96 10.81 7.18 18.61 6.51 6.54 2.7 8.87 10.58 14.67 14.37 5.8 4.01 6.78 11.49 7.95 17.95-5.65-1.42-11.44-1.81-17.15-2.78-1.87-5.04-4.35-10.12-9.52-12.46-5.42-2.66-0.96-9.55-3.05-13.98-0.82-5.91-7.44-6.63-11.51-9.61z" fill="#566770" stroke="#566770" stroke-width=".25"/> <path d="m153.32 195.34c3.68-0.89 4.26 5.27 5.9 7.5 6.65 9-2.92 18.32-7.53 25.82-2.91 2.86-6.98 0.45-9.81 3.31-5.59 0.9-6.08-7.59-11.23-8.53-6.73-0.66-2.79-9.71 1.29-11.51 6.4-6.36 12.51-13.59 21.38-16.59z" fill="#363f49" stroke="#363f49" stroke-width=".25"/> <path d="m308.02 208.31c4-4.96-6.91-11.98 1.92-13.62 0.46 0.36 1.36 1.09 1.81 1.45-0.19 3.04 2.87 3.38 5.05 4.32 0.93 4.54-5.42 6.56-8.78 7.85z" fill="#b4b7b3" stroke="#b4b7b3" stroke-width=".25"/> <path d="m311.75 196.14c2.5 1.11 5.51 1.53 7.35 3.73 3.48 5.33 10.7-2.66 14.76 2.28-0.62 3.34-9.15 4.95-6.19 9.12 7.99 7.47 18.38-9.05 24.97 1.06 0.46 4.14 2.06 15.98 8.85 11.3-0.04-5.69 6.63-7.06 9.36-2.35 3.12 6.02-5.82 5.11-5.78 9.48 3.47 0.63 7.36 3.06 10.67 1.02 0.64-3.57 0.79-7.2 1.49-10.75 2.64-0.49 3.73 2.62 5.53 3.99l-0.07 0.83c-1.3 8.69 2.98 19.44-6.29 25.36-8.67-0.36-11.95-9.87-17.37-14.54 1.44-1.53 2.86-3.11 4.02-4.87-5.88 4.1-11.62 8.97-18.97 10.26-7.91-3.84-14.09-9.83-21.42-14.74-2.76-1.06-6.02-0.26-8.11-2.88-2.52-2.9-4.35 1.18-6.22 2.61-15.22-0.29-6.99-15.45-4.97-23.95 3.35-0.96 3.12 3.34 4.66 5.21 3.36-1.29 9.71-3.31 8.78-7.85-2.18-0.94-5.24-1.28-5.05-4.32z" fill="#d9d4c8" stroke="#d9d4c8" stroke-width=".25"/> <path d="m76.33 199.14c5.19-1.64 0.45 4.86 0 0z" fill="#abb5bf" stroke="#abb5bf" stroke-width=".25"/> <path d="m372.18 204.67c2.15-3.27 7.06 9.71 0.91 7.26 1.52-2.4-0.57-4.82-0.91-7.26z" fill="#bcb9b2" stroke="#bcb9b2" stroke-width=".25"/> <path d="m366.14 207.29c1.96-0.98 3.95-1.94 6.04-2.62 0.34 2.44 2.43 4.86 0.91 7.26-4.11 2.3-7.07-0.23-6.95-4.64z" fill="#80807e" stroke="#80807e" stroke-width=".25"/> <path d="m28.29 206.28c3.46-1.1-0.18 6.13 1.66 8.79-3.27-0.55-5.76-7.12-1.66-8.79z" fill="#88929b" stroke="#88929b" stroke-width=".25"/> <path d="m38.23 206.15c8.69-1.26 4.48 7.39 2.57 11.76-9.05 4.02-6.87-8.65-2.57-11.76z" fill="#b1b7b6" stroke="#b1b7b6" stroke-width=".25"/> <path d="m401.18 206.13c3.86-1.85 5.29 2.46 2.6 4.76-3.14 1.32-4.26-2.69-2.6-4.76z" fill="#62615b" stroke="#62615b" stroke-width=".25"/> <path d="m354.45 214.41c2.25-3.28 9.42-7.92 11.62-2.43 2.21 3.38-2.97 5.06-5.3 6.19-2.21-1.07-4.46-2.14-6.32-3.76z" fill="#6b7073" stroke="#6b7073" stroke-width=".25"/> <path d="m46.05 213.01c3.47-0.88 1.53 3.98 1.9 5.98-3.47 0.88-1.53-3.98-1.9-5.98z" fill="#acb4b8" stroke="#acb4b8" stroke-width=".25"/> <path d="m360.77 218.17c-2.13 5.32-8.93-2.05-6.32-3.76 1.86 1.62 4.11 2.69 6.32 3.76z" fill="#b0afa8" stroke="#b0afa8" stroke-width=".25"/> <path d="m50.82 220.12c0.85-1.74 0.88-5.01 3.58-3.72 8.25-3 4.01 7.99-0.49 5.26-1.02-0.52-2.06-1.03-3.09-1.54z" fill="#d5dad9" stroke="#d5dad9" stroke-width=".25"/> <path d="m460.09 216.94c1.37 0.32 2.75 0.61 4.15 0.91 5.17 2.34 7.65 7.42 9.52 12.46 0.1 1.19 0.21 2.38 0.33 3.58-0.27 3.29 3.3 9.91-1.69 10.01 0.33-2.62-2.87-4.19-2.67-0.71-7.11-7.77-1.99-18.78-9.64-26.25z" fill="#aeb6b4" stroke="#aeb6b4" stroke-width=".25"/> <path d="m263.93 217.98c1.76 1.36 3.85 2.06 6.01 2.47 5.83 3.07-4.41-1.44-4.28 2.56-2.12-0.85-1.65-3.18-1.73-5.03z" fill="#727879" stroke="#727879" stroke-width=".25"/> <path d="m427.54 230.46c3.85-4.76 8.05-10.35 14.27-11.82-2.79 8.93-8.34 16.78-10.09 26.07-1.58 4.18-6.78 1.22-8.49 4.18-1.83-2.45-4.5-3.7-7.52-3.72-2.11-4.35-2.74-9.89-6.95-12.83-2.49-0.36-4.63 2.94-7.44 1.56-1.75-2.68-3.19-5.58-5.53-7.82-4 0.59-7.75 2.46-11.76 3.16-0.47-1.13-0.92-2.26-1.34-3.39l0.07-0.83c3.73 0.57 7.58 1.13 10.35-1.99 3.84 1.47 9.28 1.97 10.43 6.69 2.82 0.51 5.24-2.51 8.13-1.53 2.81 4.12 2.84 9.32 4.52 13.79 5.64 0.26 11.76-5.7 11.35-11.52z" fill="#ddd8cb" stroke="#ddd8cb" stroke-width=".25"/> <path d="m53.91 221.66c-1.17 1.72-5.79-0.23-3.09-1.54 1.03 0.51 2.07 1.02 3.09 1.54z" fill="#8a9093" stroke="#8a9093" stroke-width=".25"/> <path d="m308.33 227.05c1.87-1.43 3.7-5.51 6.22-2.61 2.09 2.62 5.35 1.82 8.11 2.88 7.33 4.91 13.51 10.9 21.42 14.74 5.03 2.16 10.58-2.9 14.95-5.39 5.42 4.67 8.7 14.18 17.37 14.54l-0.6 0.66c-4.48 4.69-11.57 2.44-16.05 6.84-3.75 2.45-8.6 2.99-11.79 6.33-2.13 0.03-4.29-0.14-6.17-1.21 0.97-6.25-8.36-2.57-11.09-6.79 2.08-3.42 7.49-5.38 7.32-9.86-7.16-7.09-17.17-2.34-22.71 4.07-1.65 1.9-2.05 6.11-5.23 5.74-4.44-1.85-6.68-8.04-12.05-8l-0.87-0.16c-1.41-1.79-4.16-3.29-4.13-5.72 4.44-6.13 7.48-13.41 15.3-16.06z" fill="#c8c8c0" stroke="#c8c8c0" stroke-width=".25"/> <path d="m267.18 224.31c8.04 0.49 7.87 6.87 7.57 14.06 0.79 2.87 3.75 4.26 5.18 6.74-9.57 4.61-19.7 8.18-29.17 12.88 10.6-1.81 20.11-7.52 29.76-11.97 1.76-0.38 3.5-0.84 5.27-1.2-2.88 4.83-4.08 10.61-9.1 13.89-9.21 1.83-16.04 9.15-21.84 16.05-1.42 7.63-11.46 10.29-11.87 18.07 7.87 3.9 13.48-3.63 20.03-6-0.28 1.59-0.68 3.18-1.27 4.69-6.77-0.64-3.34 8.32-4.59 12.42 1.59-1.12 3.14-2.31 4.78-3.36 1.04 2.33 2.18 4.9 2.52 0.8 4.79-0.46 3.24-6.97 7.55-8.39 3.19-2.94 8.6-4.07 8.85-9.23 5.98 6.58 15.9 4.56 23.56 6.97-2.69 0.12-8.06 0.36-10.75 0.48 5.14 5.14 13.64 2.92 20.04 1.41 1.88 0.45 3.65 1.25 4.46 3.14-3.61-0.39-12.01 0.2-9.69 5.95-5.72-0.14-6.32 5.58-4.57 10.03-6.77-4.38-7.84 8.22-12.98 3.41-2.1 1.32-3.22 3.85-5.17 5.44l-0.56 0.53c-1.42 1.7-2.13 3.9-2.92 5.95 0.53 2.92 4.1 8.65-1.03 8.04 2.3 1.75 1.03 4.38 0.85 6.77 0.89 2.04 3.64 3.64 2.53 6.14-5.43-3.21-9.72-0.22-7.61 5.97-0.1 2.94 7.11-0.58 4.71 3.73-4.1 4.79 0.06 13.42 7.31 10.31 5.16 1.17-3.69-7.13 2.62-4.88-2.45 3.13 6.66 11.97 4.83 4.99 2.74-0.76 6.42-2.01 7.09 1.88-3.32 3.94-1.29 10.76-7.34 12.29-1.02 6.99-4.71 15.6 0.98 21.51-3.52-1.33-7.04-0.84-8.24 3.15 2.95 0.87 14.98 0.59 6.84 3.93-6.02 0.08-12.02 0.17-18.02 0.34-3.35-1.51 0.02-6.02-0.89-8.29 1.1-6.94-6.85-11.2-5.75-17.96 1.22-12.4-6.83-23.99-17.36-29.83-7.88-6.61-19.05-1.42-26.81-8.32-0.78-0.96-1.55-1.92-2.31-2.88 0.47-24.36-29.89-38.62-50.2-27.58-1.71-4.07-1.63-15.41 6.3-13.63 1.93-3.93 9.67-8.24 3.2-11.76-3.27-4.87 5.77-1.03 7.89-3.22-1.12-3.58 3.37-12.51-2.89-12.01 2.31-6.89 11.36-8.9 16.7-13.11 3.88-3.97 9.4-4.91 14.49-6.49-0.14 3.6-5.7 3.15-6.55 6.48-1.17 2.96-2.38 5.89-4.6 8.25 3.9 3.3 7.91-2.96 10.53-5.19 0.34-4.76 5.51-3.39 8.47-5.59 5.35 3.72 14.1 4.36 16.08-3.14-2.97-1.94-13.83 4.93-12-1.81 3.1-1.96 6.14-4.35 9.97-4.42-5.68-7.39 7.36-10.73 12.76-13.1 1.67-4.17-3.54-2.52-5.7-1.49-6.5 1.71-11.3 7.67-18.25 7.9 6.16-7.99 17.97-7.44 25.83-13.33 3.65-1.81 9.06-1.78 10.48-6.41z" fill="#46545e" stroke="#46545e" stroke-width=".25"/> <path d="m419 225.03c4.08-1.33 4.63 1.62 3.95 5-3.33 0.93-4.66-2.24-3.95-5z" fill="#9b9b96" stroke="#9b9b96" stroke-width=".25"/> <path d="m376.4 251.21c9.27-5.92 4.99-16.67 6.29-25.36 0.42 1.13 0.87 2.26 1.34 3.39 0 4.75-0.07 9.53 0.02 14.29-1.96 3.45-3.68 7.9-8.25 8.34l0.6-0.66z" fill="#a0a29b" stroke="#a0a29b" stroke-width=".25"/> <path d="m384.03 229.24c4.01-0.7 7.76-2.57 11.76-3.16 2.34 2.24 3.78 5.14 5.53 7.82 2.81 1.38 4.95-1.92 7.44-1.56 4.21 2.94 4.84 8.48 6.95 12.83 3.02 0.02 5.69 1.27 7.52 3.72-5.88 7.75-15.41 8.03-24.08 9.14-4.26-3.14-4.81-8.32-3.52-13.17-2.52 1.33-5.48 2.2-7.38 4.44-2.66 4.73 2.09 10.4 0.53 15.4-2.16 2.96-6.71 5.45-10.16 3.64-1.48-8.17 11.37-16.64 5.43-24.81-0.09-4.76-0.02-9.54-0.02-14.29z" fill="#cccbc1" stroke="#cccbc1" stroke-width=".25"/> <path d="m59.25 228.08c5.93 1.46-3.85 4.7 0 0z" fill="#808b91" stroke="#808b91" stroke-width=".25"/> <path d="m35.21 229.14c3.21-1.33 3.07 1.51 2.75 3.89-2.51 0.99-5.7-2.11-2.75-3.89z" fill="#b4bfc3" stroke="#b4bfc3" stroke-width=".25"/> <path d="m173.16 229.16c4.64-1-1 4.64 0 0z" fill="#8c96a0" stroke="#8c96a0" stroke-width=".25"/> <path d="m473.76 230.31c5.71 0.97 11.5 1.36 17.15 2.78 0.91 1.4 2.39 1.93 4.02 2.02 0.23 1.53 0.71 4.59 0.94 6.13-2.73-1.45-8.6-9.23-5.62 0.56 0.03 6.72 5.62 14.08 2.18 20.52-2-10.05-1.53-29.99-17.02-26.66-0.33-0.44-0.99-1.33-1.32-1.77-0.12-1.2-0.23-2.39-0.33-3.58z" fill="#8d9b9c" stroke="#8d9b9c" stroke-width=".25"/> <path d="m344.08 242.06c7.35-1.29 13.09-6.16 18.97-10.26-1.16 1.76-2.58 3.34-4.02 4.87-4.37 2.49-9.92 7.55-14.95 5.39z" fill="#96938c" stroke="#96938c" stroke-width=".25"/> <path d="m474.09 233.89c0.33 0.44 0.99 1.33 1.32 1.77 15.49-3.33 15.02 16.61 17.02 26.66 3.44-6.44-2.15-13.8-2.18-20.52-2.98-9.79 2.89-2.01 5.62-0.56 0.04 0.68 0.12 2.06 0.16 2.74 0.5 20.09-1.07 40.34 0.57 60.34-0.51 15.7 3.21 32.4-2.07 47.46-1.03 7.01-0.34 14.09-0.3 21.13-2.36 1.35-5.51 1.9-6.49 4.8-0.64 1.03-1.24 2.09-1.91 3.1-8.23-1.79-11.68 6.43-18.84 7.21-4.84 1.41-4.86 7.23-6.95 10.98-3.88 1.95-6.28 5.61-9.08 8.77-6.38 4.96-11.81 11.21-19.02 15.03-6.03 3.14-11.72 6.9-16.87 11.32-4.62 1.08-10.84-2.84-14.66 1.32-2.33 3.57-7.72-1.8-9.69 2.31-2.08 1.57-2.35 4.31-3.62 6.41-2.64-2.93-8.56-5.26-10.85-0.97-0.99 2.64-3.38 4.08-5.87 5.08 0.74-4.15-3.57-6.9-3.31-11.11 7.83-3.82 15.18-8.45 22.41-13.28 0.22 2.09 0.41 4.2 0.75 6.29 2.95-2.26-0.35-6.52 1.97-9.37-3.01-4.18-3.27-12.25-9.46-13.8 2.76 4.74 6.81 9.03 7.13 14.8-15.28 11.15-33.76 16.8-49.01 27.98-3.14 2.39-9.76 3.25-8.75 8.53-3.69 3.05-7.66-2.04-11 0.85-3.39 3.11-8.39 0-12.16 2.62-4.69-5.61-14.44-4.03-17.07 1.93-5.97-6.14-11.93-2.22-17.7 1.5-6.8 4.57-13.33-5.66-19.38-0.41-2.7 2.27-6.16 0.09-9.15-0.17 4.92-7.5 15.4-5.94 23.03-6.31 7.3 2.59 14.02-3.14 18.39-8.25 3.19-4.04-4.54-5.71-3.11-10.14 5.45 2.4 11.2 4.58 17.04 7 8.87-1.13 18.81-4.26 23.97-12.08 2.73-2.64 6.28-4.37 10.06-3.35 7.97-1.2 15.73-3.79 23.79-4.53-8.8 8.36-19.75 14.1-30.18 19.93 8.4 2.14 14.11-4.9 20.07-9.19 6.49-4.02 11.94-9.42 17.36-14.72 2.88-2.8 5.04-6.31 6.84-9.87-1.77-1.93-4.12 1.42-6.15 1.78 0.45-1.84 1.32-3.53 2.41-5.07l0.74 0.37c6.66 4.85 9.01-2.54 10.54-7.52 7.03-3.69 10.68-11.21 13.49-18.26-6.26-0.29-6.84-6.86-8.15-11.62 0.18-3.32-3.49-5.27-2.89-8.72 0.4-0.99 0.8-1.99 1.19-2.99 1.68-1.45 11.23-11.44 11.13-5.05 4.5-9.86 15.75-15.09 26.12-10.4 8.83 0.1 4.61-11.63 6.6-17.71-6.58 1.39-13.41 3.02-19.88 0.13-10.89 8.21-22.48-2.94-28.04-12.29-3.25 4.43-6.17 10.18-12.18 11.01-7.53-0.23-17.6 2.62-22.4-5.19-2.88-4.12-8.78 3.25-12.3-0.7-6.78-5.05-2.14-14.14-1.97-20.73 2.8-0.91 8.83-4.76 9.56-0.02-0.42 3.66 7 5.6 6.33 0.85-0.34-8.48-16.35 0.97-14.07-8.89 5.38 2.4 7.69-4.24 12.98-4.1l0.93 0.23c0.12 7.11 5.76-2.8 9.24 0.54 5 0.61 5.45 4.37 3.26 8.21 2.65 7.78 1.21 15.77-5.45 20.94 3.01 2.34 8.76 1.57 11.17 5.78 3.23-2.45 4.02-8.69 8.91-10.59-2.97-1.5-6.12-2.62-8.97-4.32 0.05-3.17 4.89-4.1 7.55-4.74 0.77 2.35 1.28 7.87 3.9 7.64 6.44-8.02 9.12 8.98 17.11 5.59 4.33-1.28 4.15 4.5 7.37 5.96 3.83-5.86 12.72-8.05 15.15-14.12-4.3-0.2-8.58 0.09-12.85-0.23 1.51-4.15-4.36-2.77-6.07-5.55-0.82-2.13-2.99-7.1-5.79-5.27-4.92-1.21-0.58-7.71-5.46-9.03-4.05-1.53 1.79-2.57 2.26-4.95-5.45-0.06-10.91-0.11-16.35-0.16 0.59-5.25 6.16-7.1 10.46-8.8 4.84 0.53 4.01-6.99 9.89-6.61 6.18 0.34 8.86-5.21 12.88-8.59-4.59 0.89-11.78 2.27-13.17-3.99 2.39 0.73 4.67 1.92 7.21 2.09 8.67-1.11 18.2-1.39 24.08-9.14 1.36 1.75-1.13 3.08-1.74 4.63 3.13 1.94-2.69 2.39-1.41 5.11 7.97 1.9 15.65 5.19 23.97 5.25-0.04-4.4-0.68-8.72-0.94-13.09 6.46 3.62-1.96 18.63 7.06 15.59 8.38 0.14 20.75-8.1 17.8-16.58 1.71-1.85 2.39-4.13 1.76-6.61-0.2-3.48 3-1.91 2.67 0.71 4.99-0.1 1.42-6.72 1.69-10.01z" fill="#9eaaa9" stroke="#9eaaa9" stroke-width=".25"/> <path d="m274.75 238.37c2.66-1.34 7.66-4.48 9.38-0.56 1.82 5.74 7.34 9.66 13.03 11.02l0.87 0.16c0.77 1.2 1.66 2.4 1.8 3.88-4.36 1.09-1.78 5.37-1.4 8.36 0.28 4.64-3.96 7.56-6.64 10.8-1.14-1.84-2.11-3.85-3.83-5.24 0.25 3.03 1.12 8.87 5.36 7.77 3.06-0.09 5.66-1.91 8.42-2.99-0.34-2.62-1.22-5.13-1.69-7.71 9.63 5.62 20.63 11.03 32.15 8.11-5.2 2.9-11.84 4.46-15.01 10.7 2.15 1.71 4.54 3.47 3.03 6.51 2.98-1.57 5.67-3.62 8.68-5.15 5.28 5.13-5.02 10.66-1.22 15.28-5.43-0.6-8.36-8.68-13.98-6.69-6.4 1.51-14.9 3.73-20.04-1.41 2.69-0.12 8.06-0.36 10.75-0.48-7.66-2.41-17.58-0.39-23.56-6.97-5.74-7.1-5.58-16.5-4.16-25.05 5.02-3.28 6.22-9.06 9.1-13.89-1.77 0.36-3.51 0.82-5.27 1.2l-0.59-0.91c-1.43-2.48-4.39-3.87-5.18-6.74z" fill="#9ba8a8" stroke="#9ba8a8" stroke-width=".25"/> <path d="m321.97 236.91c1.84 1.28 6.18 1.2 5.9 3.91-2.02 2.68-6.79-1.04-5.9-3.91z" fill="#c1c0ba" stroke="#c1c0ba" stroke-width=".25"/> <path d="m39.86 242.83c2.45-4.78 7.98-2.8 11.93-4.69 4.91 5.97-9.81 10.57-11.67 5.48l-0.26-0.79z" fill="#caccc8" stroke="#caccc8" stroke-width=".25"/> <path d="m398.23 242.17c1.17-0.85 3.82 1.19 2.11 2.18-1.42 2.06-4.96-1.16-2.11-2.18z" fill="#c3c2b9" stroke="#c3c2b9" stroke-width=".25"/> <path d="m34.99 246.06c0.55-2.07 3.07-2.64 4.87-3.23l0.26 0.79c-1.2 1.13-2.39 2.59-4.23 2.36l-0.9 0.08z" fill="#7e868c" stroke="#7e868c" stroke-width=".25"/> <path d="m315.31 251.25c5.54-6.41 15.55-11.16 22.71-4.07 0.17 4.48-5.24 6.44-7.32 9.86 2.73 4.22 12.06 0.54 11.09 6.79 2.68 4.97-3.81 3.88-5.51 0.36 0 5.09-8.6 7.2-10.31 1.81-2.13-3.68-6.35-4.88-9.92-6.62-5.79 3.08-15.52 0.99-16.22-6.51-0.14-1.48-1.03-2.68-1.8-3.88 5.37-0.04 7.61 6.15 12.05 8 3.18 0.37 3.58-3.84 5.23-5.74z" fill="#b7bcb7" stroke="#b7bcb7" stroke-width=".25"/> <path d="m375.8 251.87c4.57-0.44 6.29-4.89 8.25-8.34 5.94 8.17-6.91 16.64-5.43 24.81 3.45 1.81 8-0.68 10.16-3.64 1.56-5-3.19-10.67-0.53-15.4 1.9-2.24 4.86-3.11 7.38-4.44-1.29 4.85-0.74 10.03 3.52 13.17-2.54-0.17-4.82-1.36-7.21-2.09 1.39 6.26 8.58 4.88 13.17 3.99-4.02 3.38-6.7 8.93-12.88 8.59-5.88-0.38-5.05 7.14-9.89 6.61-3.66-1.46-7.59-2.04-11.5-2.21 2.14-4.67 2.95-10.77-2.18-13.74-3.41-0.97-7.04 0.74-8.68 3.71-2.12 2.62-0.18 5.72 0.86 8.32 0.07 0.41 0.2 1.23 0.27 1.63-5.59-1.18-13.89 1.73-16.89-4.51 1.22-1.13 2.52-2.16 3.74-3.29 3.19-3.34 8.04-3.88 11.79-6.33 4.48-4.4 11.57-2.15 16.05-6.84z" fill="#b7bdb8" stroke="#b7bdb8" stroke-width=".25"/> <path d="m496.03 243.98c1.83 18.28 1.11 40.53 0.57 60.34-1.64-20-0.07-40.25-0.57-60.34z" fill="#818b94" stroke="#818b94" stroke-width=".25"/> <path d="m250.76 257.99c9.47-4.7 19.6-8.27 29.17-12.88l0.59 0.91c-9.65 4.45-19.16 10.16-29.76 11.97z" fill="#66707b" stroke="#66707b" stroke-width=".25"/> <path d="m28.19 251.27c1.94-2.07 3.99-4.38 6.8-5.21l0.9-0.08c-0.27 5.26-5.91 8.74-4.12 13.78-2.41 2.68-3.7 6.73-7.76 7.17l0.11-0.89c1.26-2.21 2.04-4.66 2.93-7.02 1.05-2.43 0.76-5.18 1.14-7.75z" fill="#d5d5d0" stroke="#d5d5d0" stroke-width=".25"/> <path d="m147.22 246.16c3.48-1.45 1.72 5.11-1.24 3.88 0.03-1.41-0.27-3.12 1.24-3.88z" fill="#aab4bd" stroke="#aab4bd" stroke-width=".25"/> <path d="m328.29 248.8c-0.69-5.63 5.47-0.29 0 0z" fill="#afb1ac" stroke="#afb1ac" stroke-width=".25"/> <path d="m317.06 253.19c4.43 0.46 7.48-2.86 11.23-4.39-0.93 3.66-10.71 9.04-11.23 4.39z" fill="#979e9c" stroke="#979e9c" stroke-width=".25"/> <path d="m98.23 250.11c4.21-2.27 5.74 7.14 1.07 4.58-2.63 0-3.16-3.32-1.07-4.58z" fill="#68757e" stroke="#68757e" stroke-width=".25"/> <path d="m27.05 259.02c0.4-2.22-1.29-7.84 1.14-7.75-0.38 2.57-0.09 5.32-1.14 7.75z" fill="#909190" stroke="#909190" stroke-width=".25"/> <path d="m128.21 253.05c6.25-4.05 11.21 7.17 4.72 8.92-5.54 2.82-9.54-5.37-4.72-8.92z" fill="#738088" stroke="#738088" stroke-width=".25"/> <path d="m298.43 261.23c-0.38-2.99-2.96-7.27 1.4-8.36 0.7 7.5 10.43 9.59 16.22 6.51 3.57 1.74 7.79 2.94 9.92 6.62 1.71 5.39 10.31 3.28 10.31-1.81 1.7 3.52 8.19 4.61 5.51-0.36 1.88 1.07 4.04 1.24 6.17 1.21-1.22 1.13-2.52 2.16-3.74 3.29 3 6.24 11.3 3.33 16.89 4.51 3.21 0.12 6.5 0.16 9.73 0.08 3.91 0.17 7.84 0.75 11.5 2.21-4.3 1.7-9.87 3.55-10.46 8.8 5.44 0.05 10.9 0.1 16.35 0.16-0.47 2.38-6.31 3.42-2.26 4.95 4.88 1.32 0.54 7.82 5.46 9.03 1.89 1.79 3.76 3.63 5.79 5.27 1.71 2.78 7.58 1.4 6.07 5.55 4.27 0.32 8.55 0.03 12.85 0.23-2.43 6.07-11.32 8.26-15.15 14.12-3.22-1.46-3.04-7.24-7.37-5.96-7.99 3.39-10.67-13.61-17.11-5.59-2.62 0.23-3.13-5.29-3.9-7.64-2.66 0.64-7.5 1.57-7.55 4.74 2.85 1.7 6 2.82 8.97 4.32-4.89 1.9-5.68 8.14-8.91 10.59-2.41-4.21-8.16-3.44-11.17-5.78 6.66-5.17 8.1-13.16 5.45-20.94 2.19-3.84 1.74-7.6-3.26-8.21-3.48-3.34-9.12 6.57-9.24-0.54 2.65-1.87 3.89-5.33 2.99-8.58-1.01 2.91-1.91 5.93-3.92 8.35-5.29-0.14-7.6 6.5-12.98 4.1-2.28 9.86 13.73 0.41 14.07 8.89 0.67 4.75-6.75 2.81-6.33-0.85-0.73-4.74-6.76-0.89-9.56 0.02-1.2-0.17-2.36-0.46-3.49-0.85-3.8-4.62 6.5-10.15 1.22-15.28-3.01 1.53-5.7 3.58-8.68 5.15 1.51-3.04-0.88-4.8-3.03-6.51 3.17-6.24 9.81-7.8 15.01-10.7-11.52 2.92-22.52-2.49-32.15-8.11 0.47 2.58 1.35 5.09 1.69 7.71-2.76 1.08-5.36 2.9-8.42 2.99-0.38-0.63-1.15-1.9-1.53-2.53 2.68-3.24 6.92-6.16 6.64-10.8z" fill="#a3afad" stroke="#a3afad" stroke-width=".25"/> <path d="m254.85 274.76c5.8-6.9 12.63-14.22 21.84-16.05-1.42 8.55-1.58 17.95 4.16 25.05-0.25 5.16-5.66 6.29-8.85 9.23-4.31 1.42-2.76 7.93-7.55 8.39 0.1-2.47-0.31-5.11-0.43-7.51-2.47 0.94-1.2 4.62-2.09 6.71-1.64 1.05-3.19 2.24-4.78 3.36 1.25-4.1-2.18-13.06 4.59-12.42 0.59-1.51 0.99-3.1 1.27-4.69-6.55 2.37-12.16 9.9-20.03 6 0.41-7.78 10.45-10.44 11.87-18.07z" fill="#4b5c65" stroke="#4b5c65" stroke-width=".25"/> <path d="m359.98 262.89c1.64-2.97 5.27-4.68 8.68-3.71 5.13 2.97 4.32 9.07 2.18 13.74-3.23 0.08-6.52 0.04-9.73-0.08-0.07-0.4-0.2-1.22-0.27-1.63 3.23 0.55 7.9 1.96 9.59-1.83 2.97-6.1-7.06-3.91-10.45-6.49z" fill="#9fabaa" stroke="#9fabaa" stroke-width=".25"/> <path d="m359.98 262.89c3.39 2.58 13.42 0.39 10.45 6.49-1.69 3.79-6.36 2.38-9.59 1.83-1.04-2.6-2.98-5.7-0.86-8.32z" fill="#899798" stroke="#899798" stroke-width=".25"/> <path d="m491.43 264.34c3.15-1.54 0.67 3.5-0.7 4.32-3.34 0.6-6.46 2.07-9.84 2.42 2.35-3.72 8.98-1.89 10.54-6.74z" fill="#899797" stroke="#899797" stroke-width=".25"/> <path d="m19.94 271.05c-0.06-2.43 2.26-4 4.18-5.01l-0.11 0.89c0.12 2.17-1.86 4.28-4.07 4.12z" fill="#7c848e" stroke="#7c848e" stroke-width=".25"/> <path d="m171.24 267.2c5.28-0.14-2.02 5.82 0 0z" fill="#c0cad2" stroke="#c0cad2" stroke-width=".25"/> <path d="m287.96 266.79c1.72 1.39 2.69 3.4 3.83 5.24 0.38 0.63 1.15 1.9 1.53 2.53-4.24 1.1-5.11-4.74-5.36-7.77z" fill="#758384" stroke="#758384" stroke-width=".25"/> <path d="m57.39 268.38c6.33-2.52 13.74 3.39 13.35 9.92 1.06 9.01-10.58 16.6-18.39 11.34-9.21-4.65-5.03-20.53 5.04-21.26z" fill="#c8cbc6" stroke="#c8cbc6" stroke-width=".25"/> <path d="m136.02 288.01c7.76-7.88 17.89-13.72 27.11-19.88 1.84-0.97 0.74 2.48-0.44 2.59-9.04 5.54-17.55 11.92-26.67 17.29z" fill="#afb6bd" stroke="#afb6bd" stroke-width=".25"/> <path d="m278.95 272.85c2.02 2.74 3.78 5.69 6.15 8.21-3.72-0.35-6.75-4.49-6.15-8.21z" fill="#718181" stroke="#718181" stroke-width=".25"/> <path d="m423.92 272.93c6.95 0.54 11.49 6.76 12.05 13.34-0.51 3.21-1.27 6.36-2 9.52-2.63-1.78 2.37-10.46-0.61-14.16-1.47-4.59-7.01-5.31-9.44-8.7z" fill="#7f8a8a" stroke="#7f8a8a" stroke-width=".25"/> <path d="m224.01 281.01c0.2-2.58 1.76-4.95 4.06-6.13-0.32 2.51-1.68 5.03-4.06 6.13z" fill="#7c8991" stroke="#7c8991" stroke-width=".25"/> <path d="m337.29 279.27c4.54-2.39 7.29 5.19 5.05 8.06-5.03 3.5-12.14-5.76-5.05-8.06z" fill="#9aa8a5" stroke="#9aa8a5" stroke-width=".25"/> <path d="m345.97 288c2.01-2.42 2.91-5.44 3.92-8.35 0.9 3.25-0.34 6.71-2.99 8.58l-0.93-0.23z" fill="#6d7977" stroke="#6d7977" stroke-width=".25"/> <path d="m481.24 280.09c3.02-1.08 1.43 2.52 0.92 4.03-1.89 8.11-10.34 13.18-18.38 12.89 7.51-3.08 17.53-7.14 17.46-16.92z" fill="#6c7978" stroke="#6c7978" stroke-width=".25"/> <path d="m217.9 291.01c1.26-3.61 2.56-8.11 6.11-10-1.57 3.3-3.01 8.86-6.11 10z" fill="#707b85" stroke="#707b85" stroke-width=".25"/> <path d="m435.97 286.27c0.43-4.79 6.21-6.12 7.21-0.4 5.89 5.5-3.35 15.25-9.21 9.92 0.73-3.16 1.49-6.31 2-9.52z" fill="#b7bebb" stroke="#b7bebb" stroke-width=".25"/> <path d="m96.87 320.03c11.11-12.79 24.65-23.47 39.15-32.02-10.07 9.76-23.19 16.65-32.77 27.23-2.07 1.59-3.42 4.8-6.38 4.79z" fill="#8f99a2" stroke="#8f99a2" stroke-width=".25"/> <path d="m177 291c13.82-3.39-3.39 13.82 0 0z" fill="#dbdbe0" stroke="#dbdbe0" stroke-width=".25"/> <path d="m313.7 292.62c5.62-1.99 8.55 6.09 13.98 6.69 1.13 0.39 2.29 0.68 3.49 0.85-0.17 6.59-4.81 15.68 1.97 20.73 3.52 3.95 9.42-3.42 12.3 0.7 4.8 7.81 14.87 4.96 22.4 5.19 6.78 1.7-11.97 7.58-7.92 11.21 6.08-3.14 12.6-5.43 19.88-3.84 3.01 6.14 0.19 12.81-1.89 18.75-0.73 3.09-2.03-3.02-3.62-1.66-2.46 0.53 0.22 1.96 0.86 3.03-3.23 3.59-7.85-4.72-10 1.63 5.25 5.27-6.29 6.69-4.25 12.92 1.78 9.78-8.4 14.62-8.74 23.37-4.03 5.99-5.8 13.7-11.52 18.26-3.96 0.32-7.48 2.09-10.97 3.79-5.15-8.15-19.85-12.81-25.75-3.29-2.71-0.02-5.42-0.04-8.11-0.05 8.14-3.34-3.89-3.06-6.84-3.93 1.2-3.99 4.72-4.48 8.24-3.15-5.69-5.91-2-14.52-0.98-21.51 6.05-1.53 4.02-8.35 7.34-12.29-0.67-3.89-4.35-2.64-7.09-1.88 1.83 6.98-7.28-1.86-4.83-4.99-6.31-2.25 2.54 6.05-2.62 4.88-7.25 3.11-11.41-5.52-7.31-10.31 2.4-4.31-4.81-0.79-4.71-3.73 4.17 1.09 7.61-1.69 7.61-5.97 1.11-2.5-1.64-4.1-2.53-6.14 0.18-2.39 1.45-5.02-0.85-6.77 5.13 0.61 1.56-5.12 1.03-8.04 0.79-2.05 1.5-4.25 2.92-5.95-0.82 5.48 6.04 0.27 0.56-0.53 1.95-1.59 3.07-4.12 5.17-5.44 5.14 4.81 6.21-7.79 12.98-3.41-1.75-4.45-1.15-10.17 4.57-10.03-2.32-5.75 6.08-6.34 9.69-5.95-0.81-1.89-2.58-2.69-4.46-3.14z" fill="#4c5e68" stroke="#4c5e68" stroke-width=".25"/> <path d="m261.93 300.58c0.89-2.09-0.38-5.77 2.09-6.71 0.12 2.4 0.53 5.04 0.43 7.51-0.34 4.1-1.48 1.53-2.52-0.8z" fill="#b1bcbd" stroke="#b1bcbd" stroke-width=".25"/> <path d="m391.43 298.07c2.8-1.83 4.97 3.14 5.79 5.27-2.03-1.64-3.9-3.48-5.79-5.27z" fill="#6b7778" stroke="#6b7778" stroke-width=".25"/> <path d="m199.16 302.16c4.64-1.01-1 4.64 0 0z" fill="#96a4af" stroke="#96a4af" stroke-width=".25"/> <path d="m62.23 304.1c4.25-1.96 5.34 5.77 0.78 4.93-3.1 1.14-2.52-3.84-0.78-4.93z" fill="#bbc2c6" stroke="#bbc2c6" stroke-width=".25"/> <path d="m40.21 306.14c4.19-2.37 3.71 5.89 0.01 4.74-1.72-0.97-1.73-3.78-0.01-4.74z" fill="#94a2ac" stroke="#94a2ac" stroke-width=".25"/> <path d="m463.24 308.2c2.8-1.55 3.75 4.13 0.97 3.53-1.11-0.87-3.37-2.71-0.97-3.53z" fill="#606c6c" stroke="#606c6c" stroke-width=".25"/> <path d="m174.47 316.38c20.31-11.04 50.67 3.22 50.2 27.58-1.9 1.84 0.14 3.87 2.31 2.88 7.76 6.9 18.93 1.71 26.81 8.32 10.53 5.84 18.58 17.43 17.36 29.83-1.1 6.76 6.85 11.02 5.75 17.96 0.91 2.27-2.46 6.78 0.89 8.29 8.37 0.7 18.27 2.2 26.13-0.29 5.9-9.52 20.6-4.86 25.75 3.29l0.31 0.8c0.51 1.4 1.09 2.78 1.71 4.15-0.26 8.35 7.96 5.32 13.63 4.22 7.53-1.7 14.54-5.11 21.44-8.51 2.03-0.36 4.38-3.71 6.15-1.78-1.8 3.56-3.96 7.07-6.84 9.87-2.82 0.54-5.54 1.52-7.25 3.98-8.06 0.74-15.82 3.33-23.79 4.53-3.78-1.02-7.33 0.71-10.06 3.35-6.86 1.71-13.61 4.1-20.76 4.31 1.54-2 1.38-4.13-0.2-6.04 4.91 0.34 13.07-5.66 8.34-10.35 4.18 9.02-10.56 5.98-8.34 10.35-3.12 0.64-6.8 0.53-8.38-2.75-2.04-5.06-7.06-7.56-10.49-11.54-3.66-2.62-8.32-3.16-12.43-4.64-4.3-1.98-3.35-11.14-9.25-9.72-1.54-2.6-3.64-4.74-5.75-6.88 17.22-6.07 12.27-30.65-1.87-37.68 4.09 6.59 11.71 12.41 11.19 21.13 1.32 7.11-4.09 13.54-10.82 14.97-2.39-4.15-5.85 0.87-9.11 1.04-5.04-2.51-1.85-12.12-8.77-11.45-4.36-2.2-11.06 5.03-13.23-1.7-1.67-6.32-8.54-3.5-12.74-6.23-2.43-5.23-1.78-11.19-3.6-16.58-4.79-1.09-5.52 5.68-8.18 8.55-10.43 11.46-33.06 12.61-40.89-2.52-4.75 1.23-10.7 2.68-12.8 7.77-0.83 3.97-7.56 4.8-7.32 0.03-2.07 1.64-2.43 4.4-2.95 6.83-4.44 1.11-7.88 4.79-12.63 5.01-3.29-3.36-4.15-11.36-10.83-8.64-3.2 3.2-9.28 1.31-11.12 5.88-1.33 2.76-1.83 7.08-5.79 7-0.62-4.33-6.4-9.06-8.36-2.95-7.7-1.32-18.86-3.92-22.37 5.52-4.34-4.83-10.42 4.58-13.09-2.95-3.64-6.38-11.83-6.33-16.19-11.82-3.28-2.58-7.04-7.88-11.2-4.07-2.89-3.47-4.46-9.66-9.99-8.87-0.09-12.3-0.06-24.6-0.03-36.89 3.47-0.52 6.45 2.35 9.9 1.45 3.95 0.85 10.19-3.61 9.32-7.51 1.8-2.35 6.45-3.55 9.74-3.93 3.33-0.03 6.68 0 10.02 0.01 1.24 0.02 2.34 0.47 3.28 1.34-5.56 0.44-11.51-1.49-16.67 1.35 12.16-1.32 25.83 2.62 30.42 15.29 3.15 2.51 1.94 17.69 5.9 8.92 5.64 0.24 10.35-3.28 15.69 0.58 7.56 0.45 10.32 9.02 17.23 10.31 4.42-3.94 3.08-10.93 6.23-15.73 4.29-7.05 11.39-14.01 19.9-15.08 2.97-0.02 5.97 0.01 8.96 0.06 0.52 0.34 1.56 1.01 2.08 1.35 1.08 1.52 2.83 2.22 4.54 2.77 1.97 0.93 3.49 2.51 5.22 3.78 4.36-7.22 10.29-13.45 17.69-17.55z" fill="#eee8dc" stroke="#eee8dc" stroke-width=".25"/> <path d="m454.33 313.32c1.8-1.12-0.04 2.15-0.99 2.13-0.25 6.94 3.16 17.18-2.17 21.68 2.09-7.2 2.63-14.94 0.05-22.06 0.95-0.73 2.03-1.26 3.11-1.75z" fill="#839090" stroke="#839090" stroke-width=".25"/> <path d="m183.4 315.44c5.24-0.76 12.68-0.58 16.67 2.64-8.9-1.72-17.8-1.63-26.16 1.94 1.78-3.06 6.15-3.75 9.49-4.58z" fill="#b4b1a7" stroke="#b4b1a7" stroke-width=".25"/> <path d="m367.84 326.78c6.01-0.83 8.93-6.58 12.18-11.01 5.56 9.35 17.15 20.5 28.04 12.29 6.47 2.89 13.3 1.26 19.88-0.13-1.99 6.08 2.23 17.81-6.6 17.71-10.37-4.69-21.62 0.54-26.12 10.4 0.1-6.39-9.45 3.6-11.13 5.05-4.15-0.96-11.74 2.23-5.76 6.27-2.62 9.63 8.69 17.74 3.95 27.88-2.22 6-9.9-1.13-13.52 3.43-4.4 2.69-8.15 6.25-11.96 9.71-6.51-2.42-9.17 7.42-15.85 5.58-3.82-0.32-7.72 4.23-10.97 1.08l-0.31-0.8c3.49-1.7 7.01-3.47 10.97-3.79 5.72-4.56 7.49-12.27 11.52-18.26 0.34-8.75 10.52-13.59 8.74-23.37-2.04-6.23 9.5-7.65 4.25-12.92 2.15-6.35 6.77 1.96 10-1.63-0.64-1.07-3.32-2.5-0.86-3.03 1.59-1.36 2.89 4.75 3.62 1.66 2.08-5.94 4.9-12.61 1.89-18.75-7.28-1.59-13.8 0.7-19.88 3.84-4.05-3.63 14.7-9.51 7.92-11.21z" fill="#556871" stroke="#556871" stroke-width=".25"/> <path d="m43.98 318.98c3.37-1.85 6.71-1.84 10.02 0.01-3.34-0.01-6.69-0.04-10.02-0.01z" fill="#919699" stroke="#919699" stroke-width=".25"/> <path d="m40.61 321.68c5.16-2.84 11.11-0.91 16.67-1.35 4.29 0.92 8.52 3.48 11.3 6.96 1.21 1.82 2.68 3.44 4.22 4.98 2.9 3.79 3.75 8.96 4.13 13.62-3.96 8.77-2.75-6.41-5.9-8.92-4.59-12.67-18.26-16.61-30.42-15.29z" fill="#c3c4c0" stroke="#c3c4c0" stroke-width=".25"/> <path d="m285.19 321.12 0.56-0.53c5.48 0.8-1.38 6.01-0.56 0.53z" fill="#8899a3" stroke="#8899a3" stroke-width=".25"/> <path d="m24.92 330.42c1.83-3.38 5.17-7.08 9.32-7.51 0.87 3.9-5.37 8.36-9.32 7.51z" fill="#c0c1bf" stroke="#c0c1bf" stroke-width=".25"/> <path d="m210.92 323.92c8.27 4.25 14.71 18.39 8.88 26.86-3.73 3.19-0.07-2.6 0.94-4.13 0.93-8.64-4.16-16.65-9.82-22.73z" fill="#9d9890" stroke="#9d9890" stroke-width=".25"/> <path d="m135.98 325.97c-0.49-1.82 8.79-1.74 8.96 0.06-2.99-0.05-5.99-0.08-8.96-0.06z" fill="#838888" stroke="#838888" stroke-width=".25"/> <path d="m68.58 327.29c2.19 0.29 4.78 2.55 4.22 4.98-1.54-1.54-3.01-3.16-4.22-4.98z" fill="#7f878b" stroke="#7f878b" stroke-width=".25"/> <path d="m147.02 327.38c1.67-0.89 5.1 0.62 4.54 2.77-1.71-0.55-3.46-1.25-4.54-2.77z" fill="#899090" stroke="#899090" stroke-width=".25"/> <path d="m14.03 368.03c1.09-12.28-2.1-28.47 0.99-39.06-0.03 12.29-0.06 24.59 0.03 36.89-0.01 0.53-0.04 1.57-0.05 2.1l-0.97 0.07z" fill="#b3b4b2" stroke="#b3b4b2" stroke-width=".25"/> <path d="m45.38 332.39c3.05-1.26 18.44 0.11 5.6 0.61-7.56 0-14.49 4.15-18.86 10.12-2.17 2.57-0.55-1.88 0.18-2.84 3.44-3.73 8.14-6.56 13.08-7.89z" fill="#b0aba2" stroke="#b0aba2" stroke-width=".25"/> <path d="m325.17 334.21c5.18 1.8-4.3 4.26 0 0z" fill="#b6c7d1" stroke="#b6c7d1" stroke-width=".25"/> <path d="m199.88 334.93c5.25 0.59 8.86 6.28 9.18 11.21-2.69-4.04-6.1-7.46-9.18-11.21z" fill="#bab1a8" stroke="#bab1a8" stroke-width=".25"/> <path d="m248.17 335.21c5.18 1.8-4.3 4.26 0 0z" fill="#cbd7dd" stroke="#cbd7dd" stroke-width=".25"/> <path d="m157.33 336.32c2.99 3.37-4.11 4.33 0 0z" fill="#aba397" stroke="#aba397" stroke-width=".25"/> <path d="m344.21 336.14c3.21-1.33 3.07 1.51 2.75 3.89-2.51 0.99-5.7-2.11-2.75-3.89z" fill="#c1c9cf" stroke="#c1c9cf" stroke-width=".25"/> <path d="m135.25 337.24c5.22-1.34 0.38 1.79-1.42 3.58-4.88 3.95-3.56 10.83-3.93 16.33-4.83-6-0.53-15.95 5.35-19.91z" fill="#bab3a8" stroke="#bab3a8" stroke-width=".25"/> <path d="m314.03 337.94c6.77 0.54-1.29 6.63 0 0z" fill="#8b9ca6" stroke="#8b9ca6" stroke-width=".25"/> <path d="m45.38 339.39c6.18-0.92 15.05-1.67 18.73 4.71-9.02-7.66-29.84-4.82-28.25 10.03-4.54-5.73 3.33-13.93 9.52-14.74z" fill="#a8a49d" stroke="#a8a49d" stroke-width=".25"/> <path d="m469.14 339.05c0.47-0.01 1.41-0.04 1.88-0.05 0.1 9.06-3.85 17.72-9.14 24.91-3.61 1.12-0.44-2.3 0.63-3.43 3.81-6.44 6.46-13.86 6.63-21.43z" fill="#84908f" stroke="#84908f" stroke-width=".25"/> <path d="m48.39 342.46c4.02-0.51 11.07 0.61 11.7 5.61-5.24-5.8-14.02-5.01-20.21-1.08 0.62-3.52 5.59-3.69 8.51-4.53z" fill="#8a8780" stroke="#8a8780" stroke-width=".25"/> <path d="m116.25 344.17c0.32 4.91-0.39 13.06 3.78 18.92-5.32-4.83-6.43-12.34-3.78-18.92z" fill="#b3b0a7" stroke="#b3b0a7" stroke-width=".25"/> <path d="m226.98 346.84c-2.17 0.99-4.21-1.04-2.31-2.88 0.76 0.96 1.53 1.92 2.31 2.88z" fill="#95989a" stroke="#95989a" stroke-width=".25"/> <path d="m277.01 353.99c-2.11-6.19 2.18-9.18 7.61-5.97 0 4.28-3.44 7.06-7.61 5.97z" fill="#e1e4e3" stroke="#e1e4e3" stroke-width=".25"/> <path d="m94.88 349.92c6.34 1.24 11.76 7.55 10.07 14.31-2.09-1.33-2.83-3.37-2.2-6.12-1.12-3.95-5.69-5.11-7.87-8.19z" fill="#bdbab2" stroke="#bdbab2" stroke-width=".25"/> <path d="m83.28 352.21c3.93-0.91-1.09 4.28-0.73 6.45-2.44 6.61-1.47-4.41 0.73-6.45z" fill="#c7c1b5" stroke="#c7c1b5" stroke-width=".25"/> <path d="m188.02 351.96c1.39-0.05 3.99-0.08 3.86 1.89-1.83 2.23-5.2 1.33-3.86-1.89z" fill="#777775" stroke="#777775" stroke-width=".25"/> <path d="m494.23 372.91c-0.04-7.04-0.73-14.12 0.3-21.13 3.6 6.31 2.55 13.91 2.38 21.21l-2.68-0.08z" fill="#727e85" stroke="#727e85" stroke-width=".25"/> <path d="m241.35 355.29c10.41-1.66 1.02 1.75-1.7 2.3-3.59 1.45 0.11-2.19 1.7-2.3z" fill="#b0ab9e" stroke="#b0ab9e" stroke-width=".25"/> <path d="m255.84 359.91c14.14 7.03 19.09 31.61 1.87 37.68-0.37-0.39-1.13-1.18-1.5-1.58 6.73-1.43 12.14-7.86 10.82-14.97 0.52-8.72-7.1-14.54-11.19-21.13z" fill="#aaa8a0" stroke="#aaa8a0" stroke-width=".25"/> <path d="m200.58 369.64c2.66-2.87 3.39-9.64 8.18-8.55 1.82 5.39 1.17 11.35 3.6 16.58 4.2 2.73 11.07-0.09 12.74 6.23 2.17 6.73 8.87-0.5 13.23 1.7 6.92-0.67 3.73 8.94 8.77 11.45 3.26-0.17 6.72-5.19 9.11-1.04 0.37 0.4 1.13 1.19 1.5 1.58 2.11 2.14 4.21 4.28 5.75 6.88 5.9-1.42 4.95 7.74 9.25 9.72 4.11 1.48 8.77 2.02 12.43 4.64-5.01 0.7-9.99-0.16-11.28 6.1-2.93 8.06-7.48-1.18-12.85 0.97-2.94 0.84-6.92 0.04-8.7 2.94-0.8-1.42-1.68-2.78-2.56-4.14 1.34-1.96 5.45 0.23 3.86-3.13 1.37-7.78-9.77-6.73-10.31-0.41 0.9 4.69-0.34 9.91-5.78 9.95-1.21-1.32-2.78-2.09-4.52-2.39-2.31-0.82-4.6-1.69-6.81-2.73-0.33-0.27-1-0.83-1.33-1.1-7.36-4.13-9.78 4.81-10.95 9.93 7.27-1.55-2.46 2.85-2.85 6.32-0.31-0.32-0.93-0.98-1.23-1.31 2.08-7.57-9.9-7.51-9.38-0.17-8.37-1.55-3.97 1.26-2.41 4.34-1.94 3.89-4.52 7.91-8.8 9.42-2.2-4.04-8.42-8.15-4.79-12.9 3.36-6.83-8.29-1.16-7.51-7.54 1.91-5.9 9.44-8.26 14.62-11.3 11.82-1.08-1.77-2.07 1.18-5.82 1.02-5.16 9.63-1.78 10.92-7.17 0.95-3.41 5.01-7.81 1.67-10.99-6.08-4.21-16.79-5.88-20.49 2.18-2.86 7.65-9.96 11.02-16.71 14.32-1.25 3.3 3.16 1.41 4.7 0.66 6.39-3.65 1.77 8.75-2.67 7.51-1.9-0.51-3.55 0.08-4.64 1.71-4.61-2.85-6.69 2.38-7.79 5.88-7.3 2.79-8.54-5.41-12.85-8.65 1.21-0.44 1.84-1.2 1.88-2.29-0.29-1.54-2.76-1.04-3.95-1.69 4.49-5.4-7.73-6.66-2.7-0.48 4.77 4.26-4.58 1.68-2.63-2.17 0.37-3.88-3.05-15.88-8.2-9.45-2.82 1.41-6.95 5.9-9.6 2.07-2.96-4.17 4.24-6.76 3.33-11.08-3.77-1.18-6.48-3.13-7.21-7.16-5.3 0.89-4.47 11.57 2.27 8.16 0.23 9.03-14.11 10.84-12.05 20.67 2.55 6.41 7.94 11.26 11.09 17.22-2.43 0.18-5.13-3.91-6.98-0.9-0.97 2.43 2.15 2.79 3.83 2.83-0.46 2.05-1.7 3.88-3.81 4.5-3.95-1.64-0.01-6.26-1.82-8.47-3.8-3.29-8.53-2.09-10.97 2.11-5.22-1.51-2.8-7.74-6.29-10.52-0.15 3.05-0.72 6.7 1.19 9.41-4.99 5.16-17.91-9.39-8.23-13.04 8.25-4.21 6.89-14.2 6.06-21.92 1.65-2.67 3.94-5.07 4.43-8.3 3.7 4.6-3.89 8.91-0.53 12.93 4.39-2.01 8.92-3.38 13.69-3.9-1.01-4.22 0.79-7.12 3.88-9.29-3.3-6.85 6.68-7.38 7.46-2.56 0.53 5.83 11.27 5.45 8.18 12.01 2.87-0.34 5.73-0.74 8.64-0.6 1.86-3.04 4.37-5.47 7.34-7.45-2.62-3.15-6.82-5.58-6.56-10.2 0.52-2.43 0.88-5.19 2.95-6.83-0.24 4.77 6.49 3.94 7.32-0.03 2.1-5.09 8.05-6.54 12.8-7.77 7.83 15.13 30.46 13.98 40.89 2.52z" fill="#d1cec2" stroke="#d1cec2" stroke-width=".25"/> <path d="m378.33 367.36c-5.98-4.04 1.61-7.23 5.76-6.27-0.39 1-0.79 2-1.19 2.99-3.51 5.4-3.79 15.59 2.97 18.03 0.02-3.1-0.15-6.23-0.08-9.31 1.31 4.76 1.89 11.33 8.15 11.62-2.81 7.05-6.46 14.57-13.49 18.26l-0.79 0.4c-2.57-3.67-6.55-4.68-10.9-4.41 3.62-4.56 11.3 2.57 13.52-3.43 4.74-10.14-6.57-18.25-3.95-27.88z" fill="#607379" stroke="#607379" stroke-width=".25"/> <path d="m407.31 361.16c4.11-2.18 7.01 0.83 8.41 4.03-1.63 5.26-5.26 9.97-4.72 15.84-0.5 2.77 0.12 6.77-3.06 8.09 0.15-1.47 0.49-2.91 0.8-4.36-5.57 3.17-10.53 7.5-16.85 9.32 2.18-3.74 8.66-4.92 8.14-9.94-9.4 3.51-3.49-3.39-2.19-5.26 4.7-5.08 3.76-13.46 9.47-17.72z" fill="#8a9899" stroke="#8a9899" stroke-width=".25"/> <path d="m385.87 382.11c-6.76-2.44-6.48-12.63-2.97-18.03-0.6 3.45 3.07 5.4 2.89 8.72-0.07 3.08 0.1 6.21 0.08 9.31z" fill="#839698" stroke="#839698" stroke-width=".25"/> <path d="m15.05 365.86c5.53-0.79 7.1 5.4 9.99 8.87 4.16-3.81 7.92 1.49 11.2 4.07 4.36 5.49 12.55 5.44 16.19 11.82 2.67 7.53 8.75-1.88 13.09 2.95 3.51-9.44 14.67-6.84 22.37-5.52l1.14 0.06c-4.66 4.46-14.26-0.77-18.37 5.56-2.83 2.66-6.48 11.72-10.74 8.44-0.7 0.01-2.11 0.02-2.81 0.03-4.19 3.57-9.26-3.8-13.14-5.07-7.79-7.38-18.03-12.97-28.97-11.08-0.03-6.02 0.01-12.03 0-18.03 0.01-0.53 0.04-1.57 0.05-2.1z" fill="#dad7cb" stroke="#dad7cb" stroke-width=".25"/> <path d="m75.31 367.34c6.21-1.09-2.02 2.76-4.45 2.69 0.75-1.86 2.74-2.24 4.45-2.69z" fill="#aba39a" stroke="#aba39a" stroke-width=".25"/> <path d="m14.03 368.03 0.97-0.07c0.01 6-0.03 12.01 0 18.03 0 1.56 0.04 3.12 0.1 4.69-0.01 1.66-0.02 3.33 0.03 5-0.11 7.05-0.21 14.11-0.1 21.16-0.04 8.75-0.04 17.52-0.07 26.27-0.17 10.58 15.62 12.58 17.06 22.87-5.96-0.01-11.92-0.01-17.87 0.04-0.32-32.66-0.11-65.33-0.12-97.99z" fill="#7c898d" stroke="#7c898d" stroke-width=".25"/> <path d="m147.32 368.12c2.78-0.85 0.58 4.17-1.11 3.5-0.82-1.19-0.11-2.9 1.11-3.5z" fill="#8c8880" stroke="#8c8880" stroke-width=".25"/> <path d="m256.92 367.89c4.09 2.39 6.66 7.38 6.08 12.1-3.93 1.07-1.15-4.22-2.62-6.36-0.94-2.08-3.33-3.32-3.46-5.74z" fill="#a5a097" stroke="#a5a097" stroke-width=".25"/> <path d="m77.46 370.26c3.16-0.89-0.88 5.76-2.15 3.09 0.56-1.13 1.37-2.12 2.15-3.09z" fill="#8d867c" stroke="#8d867c" stroke-width=".25"/> <path d="m50.01 371.01c7.15-1.53-1.53 7.15 0 0z" fill="#bab2a6" stroke="#bab2a6" stroke-width=".25"/> <path d="m227.03 370.97c2.02-0.43 4.43 0.55 4.03 2.99-2.59 0.43-5.14 0.32-4.03-2.99z" fill="#bfb8ae" stroke="#bfb8ae" stroke-width=".25"/> <path d="m234.89 370.99c4.54 0.02 4.61 8.91 0.02 10.12 1.79-3.56 2.53-6.78-0.02-10.12z" fill="#c6c0b2" stroke="#c6c0b2" stroke-width=".25"/> <path d="m65.23 373.26c5.42-2.21-0.39 4.87 0 0z" fill="#928c80" stroke="#928c80" stroke-width=".25"/> <path d="m320.21 374.14c3.53-2.33 4.22 5.05 0.79 3.89-2.88 1.09-2.51-2.92-0.79-3.89z" fill="#cbd2d3" stroke="#cbd2d3" stroke-width=".25"/> <path d="m333.26 374.17c4.53-2.17 5.39 6.76 0.75 5.86-3.38 0.41-3.72-4.76-0.75-5.86z" fill="#d3d8d7" stroke="#d3d8d7" stroke-width=".25"/> <path d="m59.02 377.03c2.52-0.42 5.03-0.3 3.96 2.94-2.52 0.41-5.03 0.29-3.96-2.94z" fill="#858581" stroke="#858581" stroke-width=".25"/> <path d="m96.21 377.13c3.23-2.09 4.26 3.96 0.78 2.9-2.61 0.95-2.45-1.89-0.78-2.9z" fill="#777267" stroke="#777267" stroke-width=".25"/> <path d="m102.04 384c1.84-4.57 7.92-2.68 11.12-5.88 6.68-2.72 7.54 5.28 10.83 8.64 4.75-0.22 8.19-3.9 12.63-5.01-0.26 4.62 3.94 7.05 6.56 10.2-2.97 1.98-5.48 4.41-7.34 7.45-2.91-0.14-5.77 0.26-8.64 0.6 3.09-6.56-7.65-6.18-8.18-12.01-0.78-4.82-10.76-4.29-7.46 2.56-3.09 2.17-4.89 5.07-3.88 9.29-4.77 0.52-9.3 1.89-13.69 3.9-3.36-4.02 4.23-8.33 0.53-12.93-0.82-2.18-3.23-5.08-5.49-2.7l-1.14-0.06c1.96-6.11 7.74-1.38 8.36 2.95 3.96 0.08 4.46-4.24 5.79-7z" fill="#dcd8cc" stroke="#dcd8cc" stroke-width=".25"/> <path d="m164.31 378.31c9.86 0.14-1.8 15.25-7.75 12.31-8.14 2.11-3.37-6.07 0.12-6.94 2.98-1.15 5.45-3.07 7.63-5.37z" fill="#b6b7b2" stroke="#b6b7b2" stroke-width=".25"/> <path d="m485.83 380.81c0.67-1.01 1.27-2.07 1.91-3.1 4.98-0.79 11.7 3.39 9.9 8.92-3.07 4.32-7.06 8.37-8.69 13.49 4.01-1.5 4.91-7.29 7.88-8.89 3.06 4.5-1.06 10.92-1.39 16.02-6.4 10.39-15.99 18.86-23.5 28.6-6.28 5.93-13.17 11.29-20.88 15.24-9.27 3.28-14.8 12.51-24.15 15.75-8.26 4.25-24.25 2.56-23.27 15.86-38.58 5.67-77.91-0.19-116.67 3.12-59.89 0.1-119.88 0.36-179.79 0.11-2.01-2.6-4.75-3.66-8.18-2.97-0.61 2.7 2.85 1.82 4.4 2.8-12.84 0.29-25.67 1.07-38.51 1.28-16.93-0.15-33.86 0.1-50.79-0.11-0.49-6.76-2.87-14.73 0.05-20.91 5.95-0.05 11.91-0.05 17.87-0.04 9.7 0.93 19.43 1.25 29.17 0.98 0.7 0.01 2.1 0.04 2.8 0.05 2.42-0.38 7.45 1.77 6.79-1.74 1.24-2.54-1.79-8.77 1.92-9.47-1.38 5.3-1.72 10.19 4.21 7.19 0.19 0.35 0.56 1.05 0.74 1.39 4.34 8.37 18.97 2.03 26.59 2.84 0.47-2.07 2.02-7.87-0.26-9.24-0.45-0.08-1.36-0.23-1.81-0.31-9.26 1.79-2.88-3.83 0.7-4.14 0.5 0.17 1.51 0.49 2.01 0.66 4.12 2.49 1.92 8.69 3.15 12.62-0.23 1.78 2.32 1.15 3.4 1.59 24.19 0.67 48.53 1.41 72.65-0.17 5.82 0.87 11.01 0.45 11.12-6.05 0.29-0.36 0.86-1.1 1.15-1.46 0.12 0.32 0.37 0.95 0.49 1.27-4.29 7.88 8.61 8.7 6.43 1.81 0.67 0.95 0.58 2.76 1.96 3.01 0.63 0.16 1.87 0.49 2.49 0.65 0.62 0.17 1.85 0.5 2.46 0.67-1.51 1.36-4.84 3.35-0.86 3.45 11.42-0.39 22.94-0.69 34.4-0.86 11.53 0.95 23.01-0.7 34.52-0.97 6.66-0.1 13.3-0.88 19.95-1.24 12.78-0.91 25.8-1.87 38.07-5.81 23.91-1.77 44.66-13.7 65.77-23.61 4.12-2.22 9.52-1.71 13.04-4.97 5.15-4.42 10.84-8.18 16.87-11.32 4.13-0.89 2.31 2.8 2.1 5.29 8.54-0.09 9.62-10.34 16.15-13.89 3.05-1.18 1.52-4.36 0.77-6.43 2.8-3.16 5.2-6.82 9.08-8.77 8.62-5.75 20.19-8.84 25.79-18.19z" fill="#343b47" stroke="#343b47" stroke-width=".25"/> <path d="m227.22 381.31c1.11-0.93 3.07-0.45 3.59 0.91-0.25 1.89-4.83 1.15-3.59-0.91z" fill="#a9a397" stroke="#a9a397" stroke-width=".25"/> <path d="m466.99 388.02c7.16-0.78 10.61-9 18.84-7.21-5.6 9.35-17.17 12.44-25.79 18.19 2.09-3.75 2.11-9.57 6.95-10.98z" fill="#414a53" stroke="#414a53" stroke-width=".25"/> <path d="m98.26 383.08c5.66 1.28-4.69 4.9 0 0z" fill="#b0aca1" stroke="#b0aca1" stroke-width=".25"/> <path d="m15 385.99c10.94-1.89 21.18 3.7 28.97 11.08 3.88 1.27 8.95 8.64 13.14 5.07-1.6 3.89 4.38 3.85 2.81-0.03 4.26 3.28 7.91-5.78 10.74-8.44 4.11-6.33 13.71-1.1 18.37-5.56 2.26-2.38 4.67 0.52 5.49 2.7-0.49 3.23-2.78 5.63-4.43 8.3 0.83 7.72 2.19 17.71-6.06 21.92-9.68 3.65 3.24 18.2 8.23 13.04 2.7 3.02 4.8 6.79 2.78 10.79 0.8 6.12-2.5 5.54-5.82 3.57-3.73 0.22-7.51 3.3-11.13 1.37-4.53-4.43 7.82-11.78-1.18-9.51-1.57-1.99 0.18-2.4 2.02-2.68-0.37-1.6-2.11-2.15-3.15-3.24 3.38-0.8 1.99-2.7-0.07-4.19-4.72-1.37-9.57 6.28-4.68 9.11-0.32 2.06-1.14 4-2.03 5.89-7.12 1.7-5.72-6.65-8.21-11.02-2.19-3.74-3.07-7.73-1.95-11.92-8.34-5.21-13.59-14.64-23.57-17.41-9.08-0.68-13.39-9.55-20.17-14.15-0.06-1.57-0.1-3.13-0.1-4.69z" fill="#c5c5bb" stroke="#c5c5bb" stroke-width=".25"/> <path d="m118.07 397.22c-6.74 3.41-7.57-7.27-2.27-8.16 0.73 4.03 3.44 5.98 7.21 7.16 0.91 4.32-6.29 6.91-3.33 11.08 2.65 3.83 6.78-0.66 9.6-2.07 5.15-6.43 8.57 5.57 8.2 9.45-1.95 3.85 7.4 6.43 2.63 2.17 0.67 0.12 2.03 0.36 2.7 0.48 1.19 0.65 3.66 0.15 3.95 1.69-2.32-1.03-5.08 0.79-1.88 2.29 4.31 3.24 5.55 11.44 12.85 8.65 1.1-3.5 3.18-8.73 7.79-5.88 2.2 1.39 4.08 0.92 4.64-1.71 4.44 1.24 9.06-11.16 2.67-7.51-1.54 0.75-5.95 2.64-4.7-0.66 6.75-3.3 13.85-6.67 16.71-14.32 3.7-8.06 14.41-6.39 20.49-2.18 3.34 3.18-0.72 7.58-1.67 10.99-1.29 5.39-9.9 2.01-10.92 7.17-2.95 3.75 10.64 4.74-1.18 5.82-5.18 3.04-12.71 5.4-14.62 11.3-0.78 6.38 10.87 0.71 7.51 7.54-3.63 4.75 2.59 8.86 4.79 12.9-1.94 1.43-5.16 2.5-4.16 5.54 3.58 2.45-1.26 2.8-3.29 3.76-5.53 1.47-11.13 0.05-16.66-0.58-4.55 1.75-12.9 7.35-14.13-0.41-1.43-4.46-5.78-9.47-2.21-14.02 3.3 6.91 11.3 2.8 17.36 4.07-1.47-8.71-13.65-1.4-17.27-8.84 2.19-2.49-0.29-1.7-2.22-1.26 1.07-3.43 4.01-4.36 6.34-1.45 2.69-10.06-7.49-7.98-9.3-1.46-4.43-2.11-6.49-6.66-9.77-9.97 0.35 5.68 5.19 9.65 7.82 14.33-5.49 3.56-7.89 8.78-5.77 15.08-5.15-0.04-4.43-8.85-10.81-6.55-6.78-0.56-14.73-2.43-20.29 2.53-0.5-0.17-1.51-0.49-2.01-0.66 1.78-4.55 3.36-11.53 9.98-9.79 1.38-1.53 5.67-9.89 1.11-6.7-1.68-0.04-4.8-0.4-3.83-2.83 1.85-3.01 4.55 1.08 6.98 0.9-3.15-5.96-8.54-10.81-11.09-17.22-2.06-9.83 12.28-11.64 12.05-20.67z" fill="#c3c3ba" stroke="#c3c3ba" stroke-width=".25"/> <path d="m15.1 390.68c6.78 4.6 11.09 13.47 20.17 14.15 9.98 2.77 15.23 12.2 23.57 17.41-1.12 4.19-0.24 8.18 1.95 11.92 2.49 4.37 1.09 12.72 8.21 11.02-0.98 5.33 0.35 10.73 0.83 16.03-1.65-5.16-6.54-7.19-11.29-8.82-3.96-4.04-9.62-5.18-14.55-7.54 0.97-5.04 4.54-9.05 6.08-13.8-5.66-5.4-9.78-14.91-18.77-14.7 0.33 4.48-3.33 5.96-6 2.32-9.15-6.03 2.26-18.92-10.17-22.99-0.05-1.67-0.04-3.34-0.03-5z" fill="#b6bab5" stroke="#b6bab5" stroke-width=".25"/> <path d="m270.35 392.34c2.01-1.29 0.47 7.44-2.41 7.78 0.17-2.73 1.04-5.42 2.41-7.78z" fill="#bbbab3" stroke="#bbbab3" stroke-width=".25"/> <path d="m446.45 392.45c0.46 4.6-6.37 17.14-13.53 19.64 5.15-6.14 9.41-12.78 13.53-19.64z" fill="#7f8a8c" stroke="#7f8a8c" stroke-width=".25"/> <path d="m87.32 393.35c0.65-0.12 1.95-0.36 2.61-0.49-3.51 5.58 0.02 12.81-3.63 18.31-0.32 6.81-9.24 5.76-13.28 2.84-5.23-2.46-2.84-10.69 2.05-11.97 5.04-1.5 6.85-7.93 12.25-8.69z" fill="#b3b7b1" stroke="#b3b7b1" stroke-width=".25"/> <path d="m225.19 394.28c5.22-0.43 2.48 8.46-1.55 6.18-3.4-1-1.49-5.82 1.55-6.18z" fill="#9aa19c" stroke="#9aa19c" stroke-width=".25"/> <path d="m15.13 395.68c12.43 4.07 1.02 16.96 10.17 22.99 2.67 3.64 6.33 2.16 6-2.32 8.99-0.21 13.11 9.3 18.77 14.7-1.54 4.75-5.11 8.76-6.08 13.8 4.93 2.36 10.59 3.5 14.55 7.54 4.75 1.63 9.64 3.66 11.29 8.82 0.3 1.35 0.62 2.7 0.95 4.06 0.66 3.51-4.37 1.36-6.79 1.74 5.53-6.11-1.86-13.93-8.99-11.99-9.23 1.17-14.38-7.81-15.31-15.74-6.55-3.7-10.85-9.73-15.53-15.43-2.95-2.55-4.42-7.69-9.13-7.01-0.11-7.05-0.01-14.11 0.1-21.16z" fill="#abb2af" stroke="#abb2af" stroke-width=".25"/> <path d="m356.8 408.38c3.81-3.46 7.56-7.02 11.96-9.71 4.35-0.27 8.33 0.74 10.9 4.41-3.23 2.41-6.36 4.95-9.75 7.12l-0.74-0.37c-3.5-2.95-8.25-0.86-12.37-1.45z" fill="#74848a" stroke="#74848a" stroke-width=".25"/> <path d="m318.16 400.16c4.64-1.01-1.01 4.64 0 0z" fill="#a3b4bc" stroke="#a3b4bc" stroke-width=".25"/> <path d="m57.11 402.14c0.7-0.01 2.11-0.02 2.81-0.03 1.57 3.88-4.41 3.92-2.81 0.03z" fill="#797a72" stroke="#797a72" stroke-width=".25"/> <path d="m474.37 402.38 0.7-0.49c-3.49 6.69-10.52 11.92-16.14 17.22 3.18-6.59 10.3-11.33 15.44-16.73z" fill="#4f5661" stroke="#4f5661" stroke-width=".25"/> <path d="m379.66 403.08 0.79-0.4c-1.53 4.98-3.88 12.37-10.54 7.52 3.39-2.17 6.52-4.71 9.75-7.12z" fill="#c6d0d1" stroke="#c6d0d1" stroke-width=".25"/> <path d="m253.02 406.03c2.52-0.42 5.03-0.3 3.96 2.94-2.52 0.41-5.04 0.29-3.96-2.94z" fill="#706f6b" stroke="#706f6b" stroke-width=".25"/> <path d="m131.95 407.23c2.4-0.14 4.88 6.2 0.77 6.53-2.73 2.43-5.31-0.4-7.59-2-0.59-3.33 4.86-2.98 6.82-4.53z" fill="#a4aba9" stroke="#a4aba9" stroke-width=".25"/> <path d="m382.74 407c6.19 1.55 6.45 9.62 9.46 13.8-2.32 2.85 0.98 7.11-1.97 9.37-0.34-2.09-0.53-4.2-0.75-6.29-7.23 4.83-14.58 9.46-22.41 13.28-0.26 4.21 4.05 6.96 3.31 11.11-6.88 4.36-15 7.51-23.27 6.06-4.95 1.99-9.33 5.46-15 3.98-1.01-5.28 5.61-6.14 8.75-8.53 15.25-11.18 33.73-16.83 49.01-27.98-0.32-5.77-4.37-10.06-7.13-14.8z" fill="#8a9799" stroke="#8a9799" stroke-width=".25"/> <path d="m340.95 413.96c6.68 1.84 9.34-8 15.85-5.58 4.12 0.59 8.87-1.5 12.37 1.45-1.09 1.54-1.96 3.23-2.41 5.07-6.9 3.4-13.91 6.81-21.44 8.51-3.38-4.07-8.86-3.55-13.63-4.22-0.62-1.37-1.2-2.75-1.71-4.15 3.25 3.15 7.15-1.4 10.97-1.08z" fill="#8e9c9d" stroke="#8e9c9d" stroke-width=".25"/> <path d="m431.94 422.8c7.21-3.82 12.64-10.07 19.02-15.03 0.75 2.07 2.28 5.25-0.77 6.43-6.53 3.55-7.61 13.8-16.15 13.89 0.21-2.49 2.03-6.18-2.1-5.29z" fill="#454f56" stroke="#454f56" stroke-width=".25"/> <path d="m496.49 409.8c0.69-2.69 3.95-1.25 3 1.58-0.15 14.2-1.19 28.45 0.5 42.61-0.96 3.47-2.58 6.8-0.47 10.24-1.19 4.79-3.51 9.53-1.26 14.64 2.45 4.23-3.06 8.82-7.26 7.11-121.09-0.2-241.78 3.16-362.7 1.33-18.5 0.87-37.14-0.57-55.69 1.24-2.3 0.69-6.17 0.87-7.72-1.51 12.84-0.21 25.67-0.99 38.51-1.28-1.55-0.98-5.01-0.1-4.4-2.8 3.43-0.69 6.17 0.37 8.18 2.97 59.91 0.25 119.9-0.01 179.79-0.11 38.76-3.31 78.09 2.55 116.67-3.12-0.98-13.3 15.01-11.61 23.27-15.86 9.35-3.24 14.88-12.47 24.15-15.75 7.71-3.95 14.6-9.31 20.88-15.24l1.23 0.34c-10.66 12.22-25.87 18.68-38.41 28.55-2.01 1.78 2.65 3.15 4.15 3.19 17.89-7.6 31.14-23.03 49.23-30.03-1.26 5.61-6.82 7.33-11.13 9.94 3.9 3.53 0.63 8.02-4.08 7.5 5.14 4.63 12.83 2.07 19.07 2.68 6.91-0.24 4.89-9.4 5.78-14.01-1.26-11.37 0.01-22.89-1.29-34.21z" fill="#3b434e" stroke="#3b434e" stroke-width=".25"/> <path d="m218.21 409.12c2.35-0.96 3.95 2.72 1.58 3.76-2.35 0.95-3.96-2.72-1.58-3.76z" fill="#72736b" stroke="#72736b" stroke-width=".25"/> <path d="m316.18 410.34c5.45 0.87 12.14 3.57 12.9 9.78-3.13-2.92-5.28-7.35-10.2-7.92-9.33 1.68-4.83-0.9-2.7-1.86z" fill="#b5b0a7" stroke="#b5b0a7" stroke-width=".25"/> <path d="m496.49 409.8c1.3 11.32 0.03 22.84 1.29 34.21-0.89 4.61 1.13 13.77-5.78 14.01-6.24-0.61-13.93 1.95-19.07-2.68 4.71 0.52 7.98-3.97 4.08-7.5 4.31-2.61 9.87-4.33 11.13-9.94-18.09 7-31.34 22.43-49.23 30.03-1.5-0.04-6.16-1.41-4.15-3.19 12.54-9.87 27.75-16.33 38.41-28.55 8.57-8.06 15.74-17.44 23.32-26.39z" fill="#353b47" stroke="#353b47" stroke-width=".25"/> <path d="m277.79 411.24c6-0.17 12-0.26 18.02-0.34 2.69 0.01 5.4 0.03 8.11 0.05-7.86 2.49-17.76 0.99-26.13 0.29z" fill="#a8acab" stroke="#a8acab" stroke-width=".25"/> <path d="m140.11 416.85c-5.03-6.18 7.19-4.92 2.7 0.48-0.67-0.12-2.03-0.36-2.7-0.48z" fill="#727776" stroke="#727776" stroke-width=".25"/> <path d="m243.3 421.16c0.54-6.32 11.68-7.37 10.31 0.41 1.59 3.36-2.52 1.17-3.86 3.13-1.72-0.64-6.92-2.97-3.25-0.21 7.09 3.67 5.88 12.36 1.32 17.6 5.04-2.32 6.18-8.32 4.49-13.25 1.78-2.9 5.76-2.1 8.7-2.94 5.37-2.15 9.92 7.09 12.85-0.97-1.39 7.57 5.89 14.55 2.11 22.06-6.1 10.07-19.32 6.03-28.36 10.6-3.38 4.5-8.92 6.27-13.73 8.76-3.59-1.86-7.24 0.71-10.81 1.33-8.18 2.65-6.13-5.87-4.3-9.94 4.43-2.2 9.64-3.28 14.62-2.04-2.56-2.55-7.72-0.13-8.53-4.47-0.13-3.39-2.31-6.86-5.91-4.44-2.63 0.34-2.98 3.19-4.09 5.09-3.72-1.88-6.98-4.51-10.25-7.07 0.74-2.46 2.97-4.02 5.22-4.98 0.3 0.33 0.92 0.99 1.23 1.31 0.39-3.47 10.12-7.87 2.85-6.32 1.17-5.12 3.59-14.06 10.95-9.93-8.93-0.24 1.69 8.89 1.33 1.1 2.21 1.04 4.5 1.91 6.81 2.73-4.07 4.38 4.46 8.24 4.52 2.39 5.44-0.04 6.68-5.26 5.78-9.95z" fill="#c4c4bb" stroke="#c4c4bb" stroke-width=".25"/> <path d="m15.03 416.84c4.71-0.68 6.18 4.46 9.13 7.01 4.68 5.7 8.98 11.73 15.53 15.43 0.93 7.93 6.08 16.91 15.31 15.74 7.13-1.94 14.52 5.88 8.99 11.99-0.7-0.01-2.1-0.04-2.8-0.05-3.61-6.9-12.29-5.48-16.95-11.19-3.55-4.49-5.26-10.07-8.15-14.88-4.39-3.23-9.13-6.02-13.01-9.92-2.32 4.77-1.53 10.97-8.12 12.14 0.03-8.75 0.03-17.52 0.07-26.27z" fill="#9ca6a5" stroke="#9ca6a5" stroke-width=".25"/> <path d="m144.88 421.31c-3.2-1.5-0.44-3.32 1.88-2.29-0.04 1.09-0.67 1.85-1.88 2.29z" fill="#7d7d73" stroke="#7d7d73" stroke-width=".25"/> <path d="m208.23 419.11c3.6-1.84 5.54 4.52 1.71 4.89-2.92 0.83-4.13-3.61-1.71-4.89z" fill="#616a66" stroke="#616a66" stroke-width=".25"/> <path d="m273.86 424.93c1.29-6.26 6.27-5.4 11.28-6.1 3.43 3.98 8.45 6.48 10.49 11.54 1.58 3.28 5.26 3.39 8.38 2.75 1.58 1.91 1.74 4.04 0.2 6.04 7.15-0.21 13.9-2.6 20.76-4.31-5.16 7.82-15.1 10.95-23.97 12.08-5.84-2.42-11.59-4.6-17.04-7-1.43 4.43 6.3 6.1 3.11 10.14-4.37 5.11-11.09 10.84-18.39 8.25-7.63 0.37-18.11-1.19-23.03 6.31-3.68 1.4-7.86 3.36-11.77 1.72 4.81-2.49 10.35-4.26 13.73-8.76 9.04-4.57 22.26-0.53 28.36-10.6 3.78-7.51-3.5-14.49-2.11-22.06z" fill="#b2b8b4" stroke="#b2b8b4" stroke-width=".25"/> <path d="m331.69 419.19c4.77 0.67 10.25 0.15 13.63 4.22-5.67 1.1-13.89 4.13-13.63-4.22z" fill="#b5bbb8" stroke="#b5bbb8" stroke-width=".25"/> <path d="m165.52 424.08c1.09-1.63 2.74-2.22 4.64-1.71-0.56 2.63-2.44 3.1-4.64 1.71z" fill="#686762" stroke="#686762" stroke-width=".25"/> <path d="m246.5 424.49c-3.67-2.76 1.53-0.43 3.25 0.21 0.88 1.36 1.76 2.72 2.56 4.14 1.69 4.93 0.55 10.93-4.49 13.25 4.56-5.24 5.77-13.93-1.32-17.6z" fill="#92938b" stroke="#92938b" stroke-width=".25"/> <path d="m312.35 422.77c4.73 4.69-3.43 10.69-8.34 10.35-2.22-4.37 12.52-1.33 8.34-10.35z" fill="#969189" stroke="#969189" stroke-width=".25"/> <path d="m358.82 426.97c1.71-2.46 4.43-3.44 7.25-3.98-5.42 5.3-10.87 10.7-17.36 14.72-5.96 4.29-11.67 11.33-20.07 9.19 10.43-5.83 21.38-11.57 30.18-19.93z" fill="#b8c1be" stroke="#b8c1be" stroke-width=".25"/> <path d="m91.07 424.66c3.49 2.78 1.07 9.01 6.29 10.52 0.41 2.91 4.4 4.63 6.48 2.09 1.91 1.48 3.38 5.56 6.31 4.27 2.11-0.62 3.35-2.45 3.81-4.5 4.56-3.19 0.27 5.17-1.11 6.7-6.62-1.74-8.2 5.24-9.98 9.79-3.58 0.31-9.96 5.93-0.7 4.14-2.55 0.73-9.7 0.61-7.59 4.67 0.45 2.65 4.95 0.52 4.52 3.62-4.31 1.02-10.9-1.64-14.28 1 6.47 0.15 12.95-0.1 19.42 0.26-7.62-0.81-22.25 5.53-26.59-2.84 4.67 0.34 9.43 1.15 14.1 0.45 2.82-1.82 0.85-5.36-1.94-5.83 4.31-3.58 5.95-8.56 5.23-14.14 2.02-4-0.08-7.77-2.78-10.79-1.91-2.71-1.34-6.36-1.19-9.41z" fill="#695c59" stroke="#695c59" stroke-width=".25"/> <path d="m226.19 425.99c0.36 7.79-10.26-1.34-1.33-1.1 0.33 0.27 1 0.83 1.33 1.1z" fill="#7f827e" stroke="#7f827e" stroke-width=".25"/> <path d="m65.01 429.01c7.15-1.53-1.53 7.15 0 0z" fill="#6f726b" stroke="#6f726b" stroke-width=".25"/> <path d="m133.93 428.8c3.28 3.31 5.34 7.86 9.77 9.97 1.81-6.52 11.99-8.6 9.3 1.46-2.33-2.91-5.27-1.98-6.34 1.45 1.93-0.44 4.41-1.23 2.22 1.26-1.75 2.71-5.57 3.74-7.13 0.19-2.63-4.68-7.47-8.65-7.82-14.33z" fill="#686763" stroke="#686763" stroke-width=".25"/> <path d="m233 428.72c1.74 0.3 3.31 1.07 4.52 2.39-0.06 5.85-8.59 1.99-4.52-2.39z" fill="#91908d" stroke="#91908d" stroke-width=".25"/> <path d="m71.03 439.29c-4.89-2.83-0.04-10.48 4.68-9.11 2.06 1.49 3.45 3.39 0.07 4.19-1.53 1.38-1.14 4.01-1.81 5.92-0.98-0.34-1.96-0.67-2.94-1z" fill="#454a4b" stroke="#454a4b" stroke-width=".25"/> <path d="m260.37 430.27c3.27-1.49 8.11-0.63 7.47 3.52-2.33 2.99-7.57 6.71-11.08 3.45-3.73-1.99 1.64-5.5 3.61-6.97z" fill="#999fa0" stroke="#999fa0" stroke-width=".25"/> <path d="m23.08 430.97c3.88 3.9 8.62 6.69 13.01 9.92 2.89 4.81 4.6 10.39 8.15 14.88 4.66 5.71 13.34 4.29 16.95 11.19-9.74 0.27-19.47-0.05-29.17-0.98-1.44-10.29-17.23-12.29-17.06-22.87 6.59-1.17 5.8-7.37 8.12-12.14z" fill="#8f9c9d" stroke="#8f9c9d" stroke-width=".25"/> <path d="m97.36 435.18c2.44-4.2 7.17-5.4 10.97-2.11-0.97 2.09-4.13 1.12-4.49 4.2-2.08 2.54-6.07 0.82-6.48-2.09z" fill="#434345" stroke="#434345" stroke-width=".25"/> <path d="m108.33 433.07c1.81 2.21-2.13 6.83 1.82 8.47-2.93 1.29-4.4-2.79-6.31-4.27 0.36-3.08 3.52-2.11 4.49-4.2z" fill="#a8a6a1" stroke="#a8a6a1" stroke-width=".25"/> <path d="m400.41 435.44c3.82-4.16 10.04-0.24 14.66-1.32-3.52 3.26-8.92 2.75-13.04 4.97-21.11 9.91-41.86 21.84-65.77 23.61-13.06 0.18-26.07 4.56-39.3 4.43 0.31 0.35 0.92 1.04 1.23 1.38-6.65 0.36-13.29 1.14-19.95 1.24-11.47-1.49-23.13-0.79-34.52 0.97-11.46 0.17-22.98 0.47-34.4 0.86-3.98-0.1-0.65-2.09 0.86-3.45 4.29-0.16 8.61 0 12.89-0.45 3.57-0.62 7.22-3.19 10.81-1.33 3.91 1.64 8.09-0.32 11.77-1.72 2.99 0.26 6.45 2.44 9.15 0.17 6.05-5.25 12.58 4.98 19.38 0.41 5.77-3.72 11.73-7.64 17.7-1.5 2.63-5.96 12.38-7.54 17.07-1.93 3.77-2.62 8.77 0.49 12.16-2.62 3.34-2.89 7.31 2.2 11-0.85 5.67 1.48 10.05-1.99 15-3.98 8.27 1.45 16.39-1.7 23.27-6.06 2.49-1 4.88-2.44 5.87-5.08 2.29-4.29 8.21-1.96 10.85 0.97 1.27-2.1 1.54-4.84 3.62-6.41 1.97-4.11 7.36 1.26 9.69-2.31z" fill="#414a53" stroke="#414a53" stroke-width=".25"/> <path d="m73.97 440.29c0.67-1.91 0.28-4.54 1.81-5.92 1.04 1.09 2.78 1.64 3.15 3.24-1.84 0.28-3.59 0.69-2.02 2.68-0.71 3.08-5.11 4-2.94 0z" fill="#9b918d" stroke="#9b918d" stroke-width=".25"/> <path d="m200.45 439.66c-0.52-7.34 11.46-7.4 9.38 0.17-2.25 0.96-4.48 2.52-5.22 4.98-0.33 0.95-0.59 1.93-0.77 2.94-0.01 3.82-2.31 7.41-3.87 1.96-1.71 6.91 6.38 10.35 5.26 17.1-1.38-0.25-1.29-2.06-1.96-3.01-0.7-2.89-4.23-3.24-6.43-1.81-0.12-0.32-0.37-0.95-0.49-1.27-0.39-1.94-0.09-4.2-1.56-5.73-3.93-0.45-5.4 5.3-9.71 3.97-1-3.04 2.22-4.11 4.16-5.54 4.28-1.51 6.86-5.53 8.8-9.42-1.56-3.08-5.96-5.89 2.41-4.34z" fill="#4a4e54" stroke="#4a4e54" stroke-width=".25"/> <path d="m71.03 439.29c0.98 0.33 1.96 0.66 2.94 1-2.17 4 2.23 3.08 2.94 0 9-2.27-3.35 5.08 1.18 9.51 3.62 1.93 7.4-1.15 11.13-1.37-1.95 4.65-8.16 3.73-12.06 4.85-0.16 3.2-0.22 6.49-0.25 9.71-5.93 3-5.59-1.89-4.21-7.19-3.71 0.7-0.68 6.93-1.92 9.47-0.33-1.36-0.65-2.71-0.95-4.06-0.48-5.3-1.81-10.7-0.83-16.03 0.89-1.89 1.71-3.83 2.03-5.89z" fill="#78635a" stroke="#78635a" stroke-width=".25"/> <path d="m135.98 458.21c-2.12-6.3 0.28-11.52 5.77-15.08 1.56 3.55 5.38 2.52 7.13-0.19 3.62 7.44 15.8 0.13 17.27 8.84-6.06-1.27-14.06 2.84-17.36-4.07-3.57 4.55 0.78 9.56 2.21 14.02-3.11 14.56-0.24-8.31-6.94-7.7-5.22 0.03-4.06 5.21-4.21 9.06-1.34-4.27-1.97-2.27-2.5 1.13-0.33-2.04-0.8-4.04-1.37-6.01z" fill="#888a87" stroke="#888a87" stroke-width=".25"/> <path d="m89.22 448.43c3.32 1.97 6.62 2.55 5.82-3.57 0.72 5.58-0.92 10.56-5.23 14.14 2.79 0.47 4.76 4.01 1.94 5.83-4.67 0.7-9.43-0.11-14.1-0.45-0.18-0.34-0.55-1.04-0.74-1.39 0.03-3.22 0.09-6.51 0.25-9.71 3.9-1.12 10.11-0.2 12.06-4.85z" fill="#b7b7b2" stroke="#b7b7b2" stroke-width=".25"/> <path d="m203.84 447.75c0.18-1.01 0.44-1.99 0.77-2.94 3.27 2.56 6.53 5.19 10.25 7.07 1.11-1.9 1.46-4.75 4.09-5.09-4.9 5.63 3.78 0.08 5.91 4.44 0.81 4.34 5.97 1.92 8.53 4.47-4.98-1.24-10.19-0.16-14.62 2.04-1.83 4.07-3.88 12.59 4.3 9.94-4.28 0.45-8.6 0.29-12.89 0.45-0.61-0.17-1.84-0.5-2.46-0.67 9.53 3.2 8.33-7.29 8.06-13.06-4.43-1.35-8.53-3.5-11.94-6.65z" fill="#8a8a85" stroke="#8a8a85" stroke-width=".25"/> <path d="m218.95 446.79c3.6-2.42 5.78 1.05 5.91 4.44-2.13-4.36-10.81 1.19-5.91-4.44z" fill="#65625e" stroke="#65625e" stroke-width=".25"/> <path d="m410.1 447.28c3.05-0.26-4.05 3.28-5.08 3.76-12.68 6.33-25.83 12.33-40.07 14.05 14.82-4.17 30.64-10.82 45.15-17.81z" fill="#4f5561" stroke="#4f5561" stroke-width=".25"/> <path d="m203.84 447.75c3.41 3.15 7.51 5.3 11.94 6.65 0.27 5.77 1.47 16.26-8.06 13.06-0.62-0.16-1.86-0.49-2.49-0.65 1.12-6.75-6.97-10.19-5.26-17.1 1.56 5.45 3.86 1.86 3.87-1.96z" fill="#bdbfb8" stroke="#bdbfb8" stroke-width=".25"/> <path d="m104.88 454.19c5.56-4.96 13.51-3.09 20.29-2.53 6.38-2.3 5.66 6.51 10.81 6.55 0.57 1.97 1.04 3.97 1.37 6.01-7.51 2.58-19.92 1.41-29.32 2.59-1.23-3.93 0.97-10.13-3.15-12.62z" fill="#b0b6b3" stroke="#b0b6b3" stroke-width=".25"/> <path d="m139.85 463.09c0.15-3.85-1.01-9.03 4.21-9.06 1.46 4.26 4.06 8.32 4 12.97-4.31 1.47-7.46 0.09-8.21-3.91z" fill="#afb4b4" stroke="#afb4b4" stroke-width=".25"/> <path d="m144.06 454.03c6.7-0.61 3.83 22.26 6.94 7.7 1.23 7.76 9.58 2.16 14.13 0.41 5.53 0.63 11.13 2.05 16.66 0.58 1.15 0.4 2.29 0.82 3.44 1.27 1.11 1.66 0.1 3.04-1.15 4.24-24.12 1.58-48.46 0.84-72.65 0.17-1.08-0.44-3.63 0.19-3.4-1.59 9.4-1.18 21.81-0.01 29.32-2.59 0.53-3.4 1.16-5.4 2.5-1.13 0.75 4 3.9 5.38 8.21 3.91 0.06-4.65-2.54-8.71-4-12.97z" fill="#4f575d" stroke="#4f575d" stroke-width=".25"/> <path d="m185.08 458.96c4.31 1.33 5.78-4.42 9.71-3.97 1.47 1.53 1.17 3.79 1.56 5.73-0.29 0.36-0.86 1.1-1.15 1.46-3.32 0.64-6.64 1.27-9.97 1.81-1.15-0.45-2.29-0.87-3.44-1.27 2.03-0.96 6.87-1.31 3.29-3.76z" fill="#a0a8a9" stroke="#a0a8a9" stroke-width=".25"/> <path d="m94.58 462.34c-2.11-4.06 5.04-3.94 7.59-4.67 0.45 0.08 1.36 0.23 1.81 0.31 0.06 3.04 0.11 6.17 0.26 9.24-6.47-0.36-12.95-0.11-19.42-0.26 3.38-2.64 9.97 0.02 14.28-1 0.43-3.1-4.07-0.97-4.52-3.62z" fill="#adb3b4" stroke="#adb3b4" stroke-width=".25"/> <path d="m103.98 457.98c2.28 1.37 0.73 7.17 0.26 9.24-0.15-3.07-0.2-6.2-0.26-9.24z" fill="#6b7274" stroke="#6b7274" stroke-width=".25"/> <path d="m196.84 461.99c2.2-1.43 5.73-1.08 6.43 1.81 2.18 6.89-10.72 6.07-6.43-1.81z" fill="#8a9299" stroke="#8a9299" stroke-width=".25"/> <path d="m185.23 463.99c3.33-0.54 6.65-1.17 9.97-1.81-0.11 6.5-5.3 6.92-11.12 6.05 1.25-1.2 2.26-2.58 1.15-4.24z" fill="#7d868d" stroke="#7d868d" stroke-width=".25"/> <path d="m296.96 467.13c13.23 0.13 26.24-4.25 39.3-4.43-12.27 3.94-25.29 4.9-38.07 5.81-0.31-0.34-0.92-1.03-1.23-1.38z" fill="#5e6470" stroke="#5e6470" stroke-width=".25"/> <path d="m243.72 470.72c11.39-1.76 23.05-2.46 34.52-0.97-11.51 0.27-22.99 1.92-34.52 0.97z" fill="#606871" stroke="#606871" stroke-width=".25"/> <path d="m90.98 472c4 0.95 11.46-1.74 14.04 1-4.01-0.98-11.46 1.75-14.04-1z" fill="#666c77" stroke="#666c77" stroke-width=".25"/> <path d="m301.34 476.41c1.38-0.8 2.14 0.41 2.86 1.42-10.76 0.84-21.51 1.51-32.26 2.22 7.86-4.84 20.19-0.02 29.4-3.64z" fill="#4d525d" stroke="#4d525d" stroke-width=".25"/> </svg>